<mxfile host="app.diagrams.net" modified="2022-05-05T17:58:42.380Z" agent="5.0 (Macintosh)" etag="XJV6OqIofFPjFg7NYxxT" version="17.4.6" type="github" pages="2">
  <diagram id="MA8oQB-ChpS0LAuA-ygN" name="Page-1">
    <mxGraphModel dx="1997" dy="2238" grid="0" gridSize="10" guides="1" tooltips="1" connect="1" arrows="1" fold="1" page="1" pageScale="1" pageWidth="850" pageHeight="1100" math="0" shadow="0">
      <root>
        <mxCell id="0" />
        <mxCell id="1" parent="0" />
        <mxCell id="8tCVFzNusxJCGrHQ7m7A-1" value="" style="outlineConnect=0;dashed=0;verticalLabelPosition=bottom;verticalAlign=top;align=center;html=1;shape=mxgraph.aws3.route_53;fillColor=#F58536;gradientColor=none;" parent="1" vertex="1">
          <mxGeometry x="1439" y="1800" width="70.5" height="85.5" as="geometry" />
        </mxCell>
        <mxCell id="8tCVFzNusxJCGrHQ7m7A-3" value="" style="outlineConnect=0;dashed=0;verticalLabelPosition=bottom;verticalAlign=top;align=center;html=1;shape=mxgraph.aws3.internet_gateway;fillColor=#F58536;gradientColor=none;" parent="1" vertex="1">
          <mxGeometry x="1458" y="2025.5" width="69" height="72" as="geometry" />
        </mxCell>
        <mxCell id="8tCVFzNusxJCGrHQ7m7A-6" value="" style="outlineConnect=0;dashed=0;verticalLabelPosition=bottom;verticalAlign=top;align=center;html=1;shape=mxgraph.aws3.vpc_peering;fillColor=#F58536;gradientColor=none;" parent="1" vertex="1">
          <mxGeometry x="1389" y="1933.5" width="69" height="72" as="geometry" />
        </mxCell>
        <mxCell id="8tCVFzNusxJCGrHQ7m7A-7" value="" style="outlineConnect=0;dashed=0;verticalLabelPosition=bottom;verticalAlign=top;align=center;html=1;shape=mxgraph.aws3.elastic_network_interface;fillColor=#F58536;gradientColor=none;" parent="1" vertex="1">
          <mxGeometry x="1129" y="2085.5" width="69" height="72" as="geometry" />
        </mxCell>
        <mxCell id="8tCVFzNusxJCGrHQ7m7A-11" value="" style="outlineConnect=0;dashed=0;verticalLabelPosition=bottom;verticalAlign=top;align=center;html=1;shape=mxgraph.aws3.vpc_nat_gateway;fillColor=#F58536;gradientColor=none;" parent="1" vertex="1">
          <mxGeometry x="1284.75" y="1845.5" width="69" height="72" as="geometry" />
        </mxCell>
        <mxCell id="8tCVFzNusxJCGrHQ7m7A-12" value="" style="outlineConnect=0;dashed=0;verticalLabelPosition=bottom;verticalAlign=top;align=center;html=1;shape=mxgraph.aws3.vpn_connection;fillColor=#F58536;gradientColor=none;" parent="1" vertex="1">
          <mxGeometry x="1580" y="2097.5" width="58.5" height="48" as="geometry" />
        </mxCell>
        <mxCell id="8tCVFzNusxJCGrHQ7m7A-24" value="VPC" style="points=[[0,0],[0.25,0],[0.5,0],[0.75,0],[1,0],[1,0.25],[1,0.5],[1,0.75],[1,1],[0.75,1],[0.5,1],[0.25,1],[0,1],[0,0.75],[0,0.5],[0,0.25]];outlineConnect=0;gradientColor=none;html=1;whiteSpace=wrap;fontSize=12;fontStyle=0;container=1;pointerEvents=0;collapsible=0;recursiveResize=0;shape=mxgraph.aws4.group;grIcon=mxgraph.aws4.group_vpc;strokeColor=#248814;fillColor=none;verticalAlign=top;align=left;spacingLeft=30;fontColor=#AAB7B8;dashed=0;" parent="1" vertex="1">
          <mxGeometry x="850" y="50" width="600" height="515" as="geometry" />
        </mxCell>
        <mxCell id="8tCVFzNusxJCGrHQ7m7A-22" value="Public subnet" style="points=[[0,0],[0.25,0],[0.5,0],[0.75,0],[1,0],[1,0.25],[1,0.5],[1,0.75],[1,1],[0.75,1],[0.5,1],[0.25,1],[0,1],[0,0.75],[0,0.5],[0,0.25]];outlineConnect=0;gradientColor=none;html=1;whiteSpace=wrap;fontSize=12;fontStyle=0;container=1;pointerEvents=0;collapsible=0;recursiveResize=0;shape=mxgraph.aws4.group;grIcon=mxgraph.aws4.group_security_group;grStroke=0;strokeColor=#248814;fillColor=#E9F3E6;verticalAlign=top;align=left;spacingLeft=30;fontColor=#248814;dashed=0;" parent="8tCVFzNusxJCGrHQ7m7A-24" vertex="1">
          <mxGeometry x="30" y="30" width="550" height="200" as="geometry" />
        </mxCell>
        <mxCell id="8tCVFzNusxJCGrHQ7m7A-25" value="" style="outlineConnect=0;dashed=0;verticalLabelPosition=bottom;verticalAlign=top;align=center;html=1;shape=mxgraph.aws3.vpc_nat_gateway;fillColor=#F58534;gradientColor=none;" parent="8tCVFzNusxJCGrHQ7m7A-22" vertex="1">
          <mxGeometry x="455" y="10" width="80" height="80" as="geometry" />
        </mxCell>
        <mxCell id="PXdA8bu888ZQMmjet499-7" value="" style="outlineConnect=0;dashed=0;verticalLabelPosition=bottom;verticalAlign=top;align=center;html=1;shape=mxgraph.aws3.route_53;fillColor=#F58536;gradientColor=none;" vertex="1" parent="8tCVFzNusxJCGrHQ7m7A-22">
          <mxGeometry x="10" y="30" width="70.5" height="85.5" as="geometry" />
        </mxCell>
        <mxCell id="8tCVFzNusxJCGrHQ7m7A-2" value="" style="outlineConnect=0;dashed=0;verticalLabelPosition=bottom;verticalAlign=top;align=center;html=1;shape=mxgraph.aws3.classic_load_balancer;fillColor=#F58536;gradientColor=none;" parent="8tCVFzNusxJCGrHQ7m7A-22" vertex="1">
          <mxGeometry x="230" y="43.5" width="69" height="72" as="geometry" />
        </mxCell>
        <mxCell id="8tCVFzNusxJCGrHQ7m7A-23" value="Private subnet" style="points=[[0,0],[0.25,0],[0.5,0],[0.75,0],[1,0],[1,0.25],[1,0.5],[1,0.75],[1,1],[0.75,1],[0.5,1],[0.25,1],[0,1],[0,0.75],[0,0.5],[0,0.25]];outlineConnect=0;gradientColor=none;html=1;whiteSpace=wrap;fontSize=12;fontStyle=0;container=1;pointerEvents=0;collapsible=0;recursiveResize=0;shape=mxgraph.aws4.group;grIcon=mxgraph.aws4.group_security_group;grStroke=0;strokeColor=#147EBA;fillColor=#E6F2F8;verticalAlign=top;align=left;spacingLeft=30;fontColor=#147EBA;dashed=0;" parent="8tCVFzNusxJCGrHQ7m7A-24" vertex="1">
          <mxGeometry x="30" y="240" width="550" height="210" as="geometry" />
        </mxCell>
        <mxCell id="8tCVFzNusxJCGrHQ7m7A-39" value="" style="sketch=0;points=[[0,0,0],[0.25,0,0],[0.5,0,0],[0.75,0,0],[1,0,0],[0,1,0],[0.25,1,0],[0.5,1,0],[0.75,1,0],[1,1,0],[0,0.25,0],[0,0.5,0],[0,0.75,0],[1,0.25,0],[1,0.5,0],[1,0.75,0]];outlineConnect=0;fontColor=#232F3E;gradientColor=#F78E04;gradientDirection=north;fillColor=#D05C17;strokeColor=#ffffff;dashed=0;verticalLabelPosition=bottom;verticalAlign=top;align=center;html=1;fontSize=12;fontStyle=0;aspect=fixed;shape=mxgraph.aws4.resourceIcon;resIcon=mxgraph.aws4.eks;" parent="8tCVFzNusxJCGrHQ7m7A-23" vertex="1">
          <mxGeometry x="130" y="114" width="78" height="78" as="geometry" />
        </mxCell>
        <mxCell id="PXdA8bu888ZQMmjet499-3" value="" style="sketch=0;points=[[0,0,0],[0.25,0,0],[0.5,0,0],[0.75,0,0],[1,0,0],[0,1,0],[0.25,1,0],[0.5,1,0],[0.75,1,0],[1,1,0],[0,0.25,0],[0,0.5,0],[0,0.75,0],[1,0.25,0],[1,0.5,0],[1,0.75,0]];outlineConnect=0;fontColor=#232F3E;gradientColor=#F78E04;gradientDirection=north;fillColor=#D05C17;strokeColor=#ffffff;dashed=0;verticalLabelPosition=bottom;verticalAlign=top;align=center;html=1;fontSize=12;fontStyle=0;aspect=fixed;shape=mxgraph.aws4.resourceIcon;resIcon=mxgraph.aws4.eks;" vertex="1" parent="8tCVFzNusxJCGrHQ7m7A-23">
          <mxGeometry x="220" y="114" width="78" height="78" as="geometry" />
        </mxCell>
        <mxCell id="PXdA8bu888ZQMmjet499-4" value="" style="sketch=0;points=[[0,0,0],[0.25,0,0],[0.5,0,0],[0.75,0,0],[1,0,0],[0,1,0],[0.25,1,0],[0.5,1,0],[0.75,1,0],[1,1,0],[0,0.25,0],[0,0.5,0],[0,0.75,0],[1,0.25,0],[1,0.5,0],[1,0.75,0]];outlineConnect=0;fontColor=#232F3E;gradientColor=#F78E04;gradientDirection=north;fillColor=#D05C17;strokeColor=#ffffff;dashed=0;verticalLabelPosition=bottom;verticalAlign=top;align=center;html=1;fontSize=12;fontStyle=0;aspect=fixed;shape=mxgraph.aws4.resourceIcon;resIcon=mxgraph.aws4.eks;" vertex="1" parent="8tCVFzNusxJCGrHQ7m7A-23">
          <mxGeometry x="310" y="114" width="78" height="78" as="geometry" />
        </mxCell>
        <mxCell id="8tCVFzNusxJCGrHQ7m7A-21" value="" style="sketch=0;points=[[0,0,0],[0.25,0,0],[0.5,0,0],[0.75,0,0],[1,0,0],[0,1,0],[0.25,1,0],[0.5,1,0],[0.75,1,0],[1,1,0],[0,0.25,0],[0,0.5,0],[0,0.75,0],[1,0.25,0],[1,0.5,0],[1,0.75,0]];outlineConnect=0;fontColor=#232F3E;gradientColor=#F78E04;gradientDirection=north;fillColor=#D05C17;strokeColor=#ffffff;dashed=0;verticalLabelPosition=bottom;verticalAlign=top;align=center;html=1;fontSize=12;fontStyle=0;aspect=fixed;shape=mxgraph.aws4.resourceIcon;resIcon=mxgraph.aws4.ec2;" parent="8tCVFzNusxJCGrHQ7m7A-23" vertex="1">
          <mxGeometry x="460" y="20" width="68" height="68" as="geometry" />
        </mxCell>
        <mxCell id="PXdA8bu888ZQMmjet499-5" value="" style="outlineConnect=0;dashed=0;verticalLabelPosition=bottom;verticalAlign=top;align=center;html=1;shape=mxgraph.aws3.endpoints;fillColor=#F58536;gradientColor=none;" vertex="1" parent="8tCVFzNusxJCGrHQ7m7A-23">
          <mxGeometry x="459" y="117" width="69" height="72" as="geometry" />
        </mxCell>
        <mxCell id="8tCVFzNusxJCGrHQ7m7A-14" value="" style="outlineConnect=0;dashed=0;verticalLabelPosition=bottom;verticalAlign=top;align=center;html=1;shape=mxgraph.aws3.lambda_function;fillColor=#F58534;gradientColor=none;" parent="8tCVFzNusxJCGrHQ7m7A-23" vertex="1">
          <mxGeometry x="20" y="120" width="69" height="72" as="geometry" />
        </mxCell>
        <mxCell id="8tCVFzNusxJCGrHQ7m7A-8" value="" style="outlineConnect=0;dashed=0;verticalLabelPosition=bottom;verticalAlign=top;align=center;html=1;shape=mxgraph.aws3.application_load_balancer;fillColor=#F58536;gradientColor=none;" parent="8tCVFzNusxJCGrHQ7m7A-23" vertex="1">
          <mxGeometry x="224.5" y="30" width="69" height="72" as="geometry" />
        </mxCell>
        <mxCell id="PXdA8bu888ZQMmjet499-9" value="Internet" style="sketch=0;outlineConnect=0;fontColor=#232F3E;gradientColor=none;strokeColor=#232F3E;fillColor=#ffffff;dashed=0;verticalLabelPosition=bottom;verticalAlign=top;align=center;html=1;fontSize=12;fontStyle=0;aspect=fixed;shape=mxgraph.aws4.resourceIcon;resIcon=mxgraph.aws4.internet;" vertex="1" parent="8tCVFzNusxJCGrHQ7m7A-24">
          <mxGeometry x="260" y="-30" width="60" height="60" as="geometry" />
        </mxCell>
        <mxCell id="PXdA8bu888ZQMmjet499-26" value="" style="outlineConnect=0;dashed=0;verticalLabelPosition=bottom;verticalAlign=top;align=center;html=1;shape=mxgraph.aws3.virtual_private_cloud;fillColor=#F58534;gradientColor=none;" vertex="1" parent="8tCVFzNusxJCGrHQ7m7A-24">
          <mxGeometry x="30" y="-30" width="79.5" height="54" as="geometry" />
        </mxCell>
        <mxCell id="PXdA8bu888ZQMmjet499-36" style="edgeStyle=orthogonalEdgeStyle;rounded=0;orthogonalLoop=1;jettySize=auto;html=1;" edge="1" parent="1" source="8tCVFzNusxJCGrHQ7m7A-26">
          <mxGeometry relative="1" as="geometry">
            <mxPoint x="340" y="712" as="targetPoint" />
            <Array as="points">
              <mxPoint x="340" y="735" />
            </Array>
          </mxGeometry>
        </mxCell>
        <mxCell id="PXdA8bu888ZQMmjet499-37" style="edgeStyle=orthogonalEdgeStyle;rounded=0;orthogonalLoop=1;jettySize=auto;html=1;" edge="1" parent="1" source="8tCVFzNusxJCGrHQ7m7A-26" target="8tCVFzNusxJCGrHQ7m7A-24">
          <mxGeometry relative="1" as="geometry">
            <mxPoint x="1160" y="580" as="targetPoint" />
          </mxGeometry>
        </mxCell>
        <mxCell id="PXdA8bu888ZQMmjet499-44" style="edgeStyle=orthogonalEdgeStyle;rounded=0;orthogonalLoop=1;jettySize=auto;html=1;fontSize=36;strokeWidth=7;" edge="1" parent="1" source="8tCVFzNusxJCGrHQ7m7A-26">
          <mxGeometry relative="1" as="geometry">
            <mxPoint x="751.9099999999999" y="910" as="targetPoint" />
          </mxGeometry>
        </mxCell>
        <mxCell id="8tCVFzNusxJCGrHQ7m7A-26" value="" style="sketch=0;points=[[0,0,0],[0.25,0,0],[0.5,0,0],[0.75,0,0],[1,0,0],[0,1,0],[0.25,1,0],[0.5,1,0],[0.75,1,0],[1,1,0],[0,0.25,0],[0,0.5,0],[0,0.75,0],[1,0.25,0],[1,0.5,0],[1,0.75,0]];outlineConnect=0;fontColor=#232F3E;gradientColor=#945DF2;gradientDirection=north;fillColor=#5A30B5;strokeColor=#ffffff;dashed=0;verticalLabelPosition=bottom;verticalAlign=top;align=center;html=1;fontSize=12;fontStyle=0;aspect=fixed;shape=mxgraph.aws4.resourceIcon;resIcon=mxgraph.aws4.transit_gateway;" parent="1" vertex="1">
          <mxGeometry x="676.91" y="660" width="150" height="150" as="geometry" />
        </mxCell>
        <mxCell id="8tCVFzNusxJCGrHQ7m7A-27" value="" style="sketch=0;points=[[0,0,0],[0.25,0,0],[0.5,0,0],[0.75,0,0],[1,0,0],[0,1,0],[0.25,1,0],[0.5,1,0],[0.75,1,0],[1,1,0],[0,0.25,0],[0,0.5,0],[0,0.75,0],[1,0.25,0],[1,0.5,0],[1,0.75,0]];outlineConnect=0;fontColor=#232F3E;gradientColor=#945DF2;gradientDirection=north;fillColor=#5A30B5;strokeColor=#ffffff;dashed=0;verticalLabelPosition=bottom;verticalAlign=top;align=center;html=1;fontSize=12;fontStyle=0;aspect=fixed;shape=mxgraph.aws4.resourceIcon;resIcon=mxgraph.aws4.direct_connect;" parent="1" vertex="1">
          <mxGeometry x="1431.5" y="2265.5" width="78" height="78" as="geometry" />
        </mxCell>
        <mxCell id="8tCVFzNusxJCGrHQ7m7A-4" value="" style="outlineConnect=0;dashed=0;verticalLabelPosition=bottom;verticalAlign=top;align=center;html=1;shape=mxgraph.aws3.vpn_gateway;fillColor=#F58536;gradientColor=none;" parent="1" vertex="1">
          <mxGeometry x="1309" y="2025.5" width="69" height="72" as="geometry" />
        </mxCell>
        <mxCell id="8tCVFzNusxJCGrHQ7m7A-9" value="" style="outlineConnect=0;dashed=0;verticalLabelPosition=bottom;verticalAlign=top;align=center;html=1;shape=mxgraph.aws3.vpc;fillColor=#F58536;gradientColor=none;" parent="1" vertex="1">
          <mxGeometry x="1214" y="1951" width="67.5" height="81" as="geometry" />
        </mxCell>
        <mxCell id="8tCVFzNusxJCGrHQ7m7A-40" value="" style="aspect=fixed;perimeter=ellipsePerimeter;html=1;align=center;shadow=0;dashed=0;spacingTop=3;image;image=img/lib/active_directory/internet_cloud.svg;" parent="1" vertex="1">
          <mxGeometry x="640" y="-210" width="223.81" height="141" as="geometry" />
        </mxCell>
        <mxCell id="8tCVFzNusxJCGrHQ7m7A-41" value="" style="sketch=0;outlineConnect=0;fontColor=#232F3E;gradientColor=none;fillColor=#4D27AA;strokeColor=none;dashed=0;verticalLabelPosition=bottom;verticalAlign=top;align=center;html=1;fontSize=12;fontStyle=0;aspect=fixed;pointerEvents=1;shape=mxgraph.aws4.gateway_load_balancer;" parent="1" vertex="1">
          <mxGeometry x="1529" y="1885.5" width="118" height="118" as="geometry" />
        </mxCell>
        <mxCell id="PXdA8bu888ZQMmjet499-11" style="edgeStyle=orthogonalEdgeStyle;rounded=0;orthogonalLoop=1;jettySize=auto;html=1;" edge="1" parent="1" source="PXdA8bu888ZQMmjet499-9">
          <mxGeometry relative="1" as="geometry">
            <mxPoint x="780" y="-60" as="targetPoint" />
            <Array as="points">
              <mxPoint x="1140" y="-30" />
              <mxPoint x="780" y="-30" />
            </Array>
          </mxGeometry>
        </mxCell>
        <mxCell id="PXdA8bu888ZQMmjet499-12" value="VPC" style="points=[[0,0],[0.25,0],[0.5,0],[0.75,0],[1,0],[1,0.25],[1,0.5],[1,0.75],[1,1],[0.75,1],[0.5,1],[0.25,1],[0,1],[0,0.75],[0,0.5],[0,0.25]];outlineConnect=0;gradientColor=none;html=1;whiteSpace=wrap;fontSize=12;fontStyle=0;container=1;pointerEvents=0;collapsible=0;recursiveResize=0;shape=mxgraph.aws4.group;grIcon=mxgraph.aws4.group_vpc;strokeColor=#248814;fillColor=none;verticalAlign=top;align=left;spacingLeft=30;fontColor=#AAB7B8;dashed=0;" vertex="1" parent="1">
          <mxGeometry x="40" y="50" width="600" height="515" as="geometry" />
        </mxCell>
        <mxCell id="PXdA8bu888ZQMmjet499-13" value="Public subnet" style="points=[[0,0],[0.25,0],[0.5,0],[0.75,0],[1,0],[1,0.25],[1,0.5],[1,0.75],[1,1],[0.75,1],[0.5,1],[0.25,1],[0,1],[0,0.75],[0,0.5],[0,0.25]];outlineConnect=0;gradientColor=none;html=1;whiteSpace=wrap;fontSize=12;fontStyle=0;container=1;pointerEvents=0;collapsible=0;recursiveResize=0;shape=mxgraph.aws4.group;grIcon=mxgraph.aws4.group_security_group;grStroke=0;strokeColor=#248814;fillColor=#E9F3E6;verticalAlign=top;align=left;spacingLeft=30;fontColor=#248814;dashed=0;" vertex="1" parent="PXdA8bu888ZQMmjet499-12">
          <mxGeometry x="30" y="30" width="550" height="200" as="geometry" />
        </mxCell>
        <mxCell id="PXdA8bu888ZQMmjet499-14" value="" style="outlineConnect=0;dashed=0;verticalLabelPosition=bottom;verticalAlign=top;align=center;html=1;shape=mxgraph.aws3.vpc_nat_gateway;fillColor=#F58534;gradientColor=none;" vertex="1" parent="PXdA8bu888ZQMmjet499-13">
          <mxGeometry x="455" y="10" width="80" height="80" as="geometry" />
        </mxCell>
        <mxCell id="PXdA8bu888ZQMmjet499-15" value="" style="outlineConnect=0;dashed=0;verticalLabelPosition=bottom;verticalAlign=top;align=center;html=1;shape=mxgraph.aws3.route_53;fillColor=#F58536;gradientColor=none;" vertex="1" parent="PXdA8bu888ZQMmjet499-13">
          <mxGeometry x="10" y="30" width="70.5" height="85.5" as="geometry" />
        </mxCell>
        <mxCell id="PXdA8bu888ZQMmjet499-16" value="" style="outlineConnect=0;dashed=0;verticalLabelPosition=bottom;verticalAlign=top;align=center;html=1;shape=mxgraph.aws3.classic_load_balancer;fillColor=#F58536;gradientColor=none;" vertex="1" parent="PXdA8bu888ZQMmjet499-13">
          <mxGeometry x="230" y="43.5" width="69" height="72" as="geometry" />
        </mxCell>
        <mxCell id="PXdA8bu888ZQMmjet499-17" value="Private subnet" style="points=[[0,0],[0.25,0],[0.5,0],[0.75,0],[1,0],[1,0.25],[1,0.5],[1,0.75],[1,1],[0.75,1],[0.5,1],[0.25,1],[0,1],[0,0.75],[0,0.5],[0,0.25]];outlineConnect=0;gradientColor=none;html=1;whiteSpace=wrap;fontSize=12;fontStyle=0;container=1;pointerEvents=0;collapsible=0;recursiveResize=0;shape=mxgraph.aws4.group;grIcon=mxgraph.aws4.group_security_group;grStroke=0;strokeColor=#147EBA;fillColor=#E6F2F8;verticalAlign=top;align=left;spacingLeft=30;fontColor=#147EBA;dashed=0;" vertex="1" parent="PXdA8bu888ZQMmjet499-12">
          <mxGeometry x="30" y="240" width="550" height="210" as="geometry" />
        </mxCell>
        <mxCell id="PXdA8bu888ZQMmjet499-18" value="" style="sketch=0;points=[[0,0,0],[0.25,0,0],[0.5,0,0],[0.75,0,0],[1,0,0],[0,1,0],[0.25,1,0],[0.5,1,0],[0.75,1,0],[1,1,0],[0,0.25,0],[0,0.5,0],[0,0.75,0],[1,0.25,0],[1,0.5,0],[1,0.75,0]];outlineConnect=0;fontColor=#232F3E;gradientColor=#F78E04;gradientDirection=north;fillColor=#D05C17;strokeColor=#ffffff;dashed=0;verticalLabelPosition=bottom;verticalAlign=top;align=center;html=1;fontSize=12;fontStyle=0;aspect=fixed;shape=mxgraph.aws4.resourceIcon;resIcon=mxgraph.aws4.eks;" vertex="1" parent="PXdA8bu888ZQMmjet499-17">
          <mxGeometry x="130" y="114" width="78" height="78" as="geometry" />
        </mxCell>
        <mxCell id="PXdA8bu888ZQMmjet499-19" value="" style="sketch=0;points=[[0,0,0],[0.25,0,0],[0.5,0,0],[0.75,0,0],[1,0,0],[0,1,0],[0.25,1,0],[0.5,1,0],[0.75,1,0],[1,1,0],[0,0.25,0],[0,0.5,0],[0,0.75,0],[1,0.25,0],[1,0.5,0],[1,0.75,0]];outlineConnect=0;fontColor=#232F3E;gradientColor=#F78E04;gradientDirection=north;fillColor=#D05C17;strokeColor=#ffffff;dashed=0;verticalLabelPosition=bottom;verticalAlign=top;align=center;html=1;fontSize=12;fontStyle=0;aspect=fixed;shape=mxgraph.aws4.resourceIcon;resIcon=mxgraph.aws4.eks;" vertex="1" parent="PXdA8bu888ZQMmjet499-17">
          <mxGeometry x="220" y="114" width="78" height="78" as="geometry" />
        </mxCell>
        <mxCell id="PXdA8bu888ZQMmjet499-20" value="" style="sketch=0;points=[[0,0,0],[0.25,0,0],[0.5,0,0],[0.75,0,0],[1,0,0],[0,1,0],[0.25,1,0],[0.5,1,0],[0.75,1,0],[1,1,0],[0,0.25,0],[0,0.5,0],[0,0.75,0],[1,0.25,0],[1,0.5,0],[1,0.75,0]];outlineConnect=0;fontColor=#232F3E;gradientColor=#F78E04;gradientDirection=north;fillColor=#D05C17;strokeColor=#ffffff;dashed=0;verticalLabelPosition=bottom;verticalAlign=top;align=center;html=1;fontSize=12;fontStyle=0;aspect=fixed;shape=mxgraph.aws4.resourceIcon;resIcon=mxgraph.aws4.eks;" vertex="1" parent="PXdA8bu888ZQMmjet499-17">
          <mxGeometry x="310" y="114" width="78" height="78" as="geometry" />
        </mxCell>
        <mxCell id="PXdA8bu888ZQMmjet499-21" value="" style="sketch=0;points=[[0,0,0],[0.25,0,0],[0.5,0,0],[0.75,0,0],[1,0,0],[0,1,0],[0.25,1,0],[0.5,1,0],[0.75,1,0],[1,1,0],[0,0.25,0],[0,0.5,0],[0,0.75,0],[1,0.25,0],[1,0.5,0],[1,0.75,0]];outlineConnect=0;fontColor=#232F3E;gradientColor=#F78E04;gradientDirection=north;fillColor=#D05C17;strokeColor=#ffffff;dashed=0;verticalLabelPosition=bottom;verticalAlign=top;align=center;html=1;fontSize=12;fontStyle=0;aspect=fixed;shape=mxgraph.aws4.resourceIcon;resIcon=mxgraph.aws4.ec2;" vertex="1" parent="PXdA8bu888ZQMmjet499-17">
          <mxGeometry x="460" y="20" width="68" height="68" as="geometry" />
        </mxCell>
        <mxCell id="PXdA8bu888ZQMmjet499-22" value="" style="outlineConnect=0;dashed=0;verticalLabelPosition=bottom;verticalAlign=top;align=center;html=1;shape=mxgraph.aws3.endpoints;fillColor=#F58536;gradientColor=none;" vertex="1" parent="PXdA8bu888ZQMmjet499-17">
          <mxGeometry x="459" y="117" width="69" height="72" as="geometry" />
        </mxCell>
        <mxCell id="PXdA8bu888ZQMmjet499-23" value="" style="outlineConnect=0;dashed=0;verticalLabelPosition=bottom;verticalAlign=top;align=center;html=1;shape=mxgraph.aws3.lambda_function;fillColor=#F58534;gradientColor=none;" vertex="1" parent="PXdA8bu888ZQMmjet499-17">
          <mxGeometry x="20" y="120" width="69" height="72" as="geometry" />
        </mxCell>
        <mxCell id="PXdA8bu888ZQMmjet499-24" value="" style="outlineConnect=0;dashed=0;verticalLabelPosition=bottom;verticalAlign=top;align=center;html=1;shape=mxgraph.aws3.application_load_balancer;fillColor=#F58536;gradientColor=none;" vertex="1" parent="PXdA8bu888ZQMmjet499-17">
          <mxGeometry x="224.5" y="30" width="69" height="72" as="geometry" />
        </mxCell>
        <mxCell id="PXdA8bu888ZQMmjet499-25" value="Internet" style="sketch=0;outlineConnect=0;fontColor=#232F3E;gradientColor=none;strokeColor=#232F3E;fillColor=#ffffff;dashed=0;verticalLabelPosition=bottom;verticalAlign=top;align=center;html=1;fontSize=12;fontStyle=0;aspect=fixed;shape=mxgraph.aws4.resourceIcon;resIcon=mxgraph.aws4.internet;" vertex="1" parent="PXdA8bu888ZQMmjet499-12">
          <mxGeometry x="260" y="-30" width="60" height="60" as="geometry" />
        </mxCell>
        <mxCell id="PXdA8bu888ZQMmjet499-8" value="" style="outlineConnect=0;dashed=0;verticalLabelPosition=bottom;verticalAlign=top;align=center;html=1;shape=mxgraph.aws3.virtual_private_cloud;fillColor=#F58534;gradientColor=none;" vertex="1" parent="1">
          <mxGeometry x="70" y="20" width="79.5" height="54" as="geometry" />
        </mxCell>
        <mxCell id="PXdA8bu888ZQMmjet499-28" style="edgeStyle=orthogonalEdgeStyle;rounded=0;orthogonalLoop=1;jettySize=auto;html=1;" edge="1" parent="1">
          <mxGeometry relative="1" as="geometry">
            <mxPoint x="399.92" y="-28" as="sourcePoint" />
            <mxPoint x="819.92" y="-108" as="targetPoint" />
            <Array as="points">
              <mxPoint x="399.92" y="-38" />
              <mxPoint x="399.92" y="-78" />
              <mxPoint x="819.92" y="-78" />
            </Array>
          </mxGeometry>
        </mxCell>
        <mxCell id="PXdA8bu888ZQMmjet499-30" value="" style="sketch=0;points=[[0,0,0],[0.25,0,0],[0.5,0,0],[0.75,0,0],[1,0,0],[0,1,0],[0.25,1,0],[0.5,1,0],[0.75,1,0],[1,1,0],[0,0.25,0],[0,0.5,0],[0,0.75,0],[1,0.25,0],[1,0.5,0],[1,0.75,0]];outlineConnect=0;fontColor=#232F3E;gradientColor=#945DF2;gradientDirection=north;fillColor=#5A30B5;strokeColor=#ffffff;dashed=0;verticalLabelPosition=bottom;verticalAlign=top;align=center;html=1;fontSize=12;fontStyle=0;aspect=fixed;shape=mxgraph.aws4.resourceIcon;resIcon=mxgraph.aws4.direct_connect;" vertex="1" parent="1">
          <mxGeometry x="1509.5" y="1970" width="78" height="78" as="geometry" />
        </mxCell>
        <mxCell id="PXdA8bu888ZQMmjet499-40" value="" style="shape=image;verticalLabelPosition=bottom;verticalAlign=top;imageAspect=0;aspect=fixed;image=data:image/png,iVBORw0KGgoAAAANSUhEUgAAAJ4AAACeCAYAAADDhbN7AAAMY2lDQ1BJQ0MgUHJvZmlsZQAASImVVwdYU8kWnltSSWiBCEgJvYkiNYCUEFoEAamCqIQkkFBiTAgqdnRZBdcuoljRVRFFV1dA1oKIa10Ue99YUFHWxVVsqLwJCei6r3zvfN/c+XPmzH9KZu6dAUBPxZfJ8lF9AAqkhfKEyFDWuLR0FukxIAAUkIEfGMoXKGSc+PgYAGWg/7u8uQYQdX/ZTc31z/H/KoZCkUIAAJIBcZZQISiAuBkAvEQgkxcCQAyDetuphTI1FkNsJIcBQjxTjXM0eJkaZ2nwtn6bpAQuxI0AkGl8vjwHAN1WqGcVCXIgj+4jiN2lQokUAD0jiIMEYr4Q4iSIhxUUTFbjuRA7QXsZxDshZmd9xZnzN/6sQX4+P2cQa/LqF3KYRCHL50//P0vzv6UgXzngwwE2mlgelaDOH9bwRt7kaDWmQdwlzYqNU9ca4ncSoabuAKBUsTIqWWOPmgsUXFg/wITYXcgPi4bYHOIIaX5sjFaflS2J4EEMVws6TVLIS9LOXShShCdqOdfLJyfEDeBsOZejnVvHl/f7Vdu3KvOSOVr+G2IRb4D/dbE4KRViKgAYtUiSEguxLsRGirzEaI0NZlMs5sYO2MiVCer47SBmi6SRoRp+LCNbHpGgtZcVKAbyxUrFEl6sFlcWipOiNPXBdgn4/fGbQFwvknKSB3hEinExA7kIRWHhmtyxNpE0WZsvdk9WGJqgndsty4/X2uNkUX6kWm8DsZmiKFE7Fx9VCBenhh+PkRXGJ2nixDNz+aPjNfHgRSAGcEEYYAElbFlgMsgFkrauhi74SzMSAfhADnKACLhpNQMzUvtHpPCZCIrBHxCJgGJwXmj/qAgUQf2nQa3m6Qay+0eL+mfkgccQF4BokA9/K/tnSQe9pYBHUCP5h3cBjDUfNvXYP3UcqInRapQDvCy9AUtiODGMGEWMIDrjZngQHoDHwGcIbB44G/cbiPaLPeExoZ3wgHCVoCLcnCQpkX8TyxiggvwR2oyzvs4Yd4Cc3ngoHgjZITPOxM2AG+4F/XDwYOjZG2q52rjVubP+TZ6DGXxVc60dxZ2CUoZQQihO387UddH1HmRRV/Tr+mhizRqsKndw5Fv/3K/qLIR99LeW2ELsAHYKO46dwQ5jDYCFHcMasfPYETUeXEOP+tfQgLeE/njyII/kH/74Wp/qSirca9073T9qx0ChaFqheoNxJ8umyyU54kIWB34FRCyeVDB8GMvD3cMDAPU3RfOaesXs/1YgzLNfdPPhXg6U9vX1Hf6ii/4AwM/WcJurvugcL8HXAXwfn14uUMqLNDpc/SDAt4Ee3FGmwBLYAieYkQfwAQEgBISD0SAOJIE0MBHWWQzXsxxMBTPBPFAKysEysBqsA5vAVrAT7AH7QQM4DI6DX8E5cBFcBbfh+ukAz0E3eAN6EQQhIXSEgZgiVog94op4IGwkCAlHYpAEJA3JRHIQKaJEZiLzkXJkBbIO2YLUID8hh5DjyBmkHbmJ3Ec6kb+QDyiG0lAj1AJ1QEegbJSDRqNJ6AQ0B52CFqML0CVoJVqN7kbr0ePoOfQqqkKfoz0YwHQwJmaNuWFsjIvFYelYNibHZmNlWAVWjdVhTfCfvoypsC7sPU7EGTgLd4NrOApPxgX4FHw2vhhfh+/E6/FW/DJ+H+/GPxPoBHOCK8GfwCOMI+QQphJKCRWE7YSDhJNwN3UQ3hCJRCbRkegLd2MaMZc4g7iYuIG4l9hMbCc+JPaQSCRTkispkBRH4pMKSaWktaTdpGOkS6QO0juyDtmK7EGOIKeTpeQScgV5F/ko+RL5CbmXok+xp/hT4ihCynTKUso2ShPlAqWD0ks1oDpSA6lJ1FzqPGoltY56knqH+kpHR8dGx09nrI5EZ65Opc4+ndM693Xe0wxpLjQuLYOmpC2h7aA1027SXtHpdAd6CD2dXkhfQq+hn6Dfo7/TZegO1+XpCnXn6Fbp1ute0n2hR9Gz1+PoTdQr1qvQO6B3Qa9Ln6LvoM/V5+vP1q/SP6R/Xb/HgGEw0iDOoMBgscEugzMGTw1Jhg6G4YZCwwWGWw1PGD5kYAxbBpchYMxnbGOcZHQYEY0cjXhGuUblRnuM2oy6jQ2NvYxTjKcZVxkfMVYxMaYDk8fMZy5l7mdeY34YYjGEM0Q0ZNGQuiGXhrw1GWoSYiIyKTPZa3LV5IMpyzTcNM90uWmD6V0z3MzFbKzZVLONZifNuoYaDQ0YKhhaNnT/0FvmqLmLeYL5DPOt5ufNeywsLSItZBZrLU5YdFkyLUMscy1XWR617LRiWAVZSaxWWR2zesYyZnFY+axKViur29rcOspaab3Fus2618bRJtmmxGavzV1bqi3bNtt2lW2Lbbedld0Yu5l2tXa37Cn2bHux/Rr7U/ZvHRwdUh2+d2hweOpo4shzLHasdbzjRHcKdpriVO10xZnozHbOc97gfNEFdfF2EbtUuVxwRV19XCWuG1zbhxGG+Q2TDqsedt2N5sZxK3Krdbs/nDk8ZnjJ8IbhL0bYjUgfsXzEqRGf3b3d8923ud8eaThy9MiSkU0j//Jw8RB4VHlc8aR7RnjO8Wz0fOnl6iXy2uh1w5vhPcb7e+8W708+vj5ynzqfTl8730zf9b7X2UbsePZi9mk/gl+o3xy/w37v/X38C/33+/8Z4BaQF7Ar4Okox1GiUdtGPQy0CeQHbglUBbGCMoM2B6mCrYP5wdXBD0JsQ4Qh20OecJw5uZzdnBeh7qHy0IOhb7n+3Fnc5jAsLDKsLKwt3DA8OXxd+L0Im4iciNqI7kjvyBmRzVGEqOio5VHXeRY8Aa+G1z3ad/Ss0a3RtOjE6HXRD2JcYuQxTWPQMaPHrBxzJ9Y+VhrbEAfieHEr4+7GO8ZPif9lLHFs/NiqsY8TRibMTDiVyEiclLgr8U1SaNLSpNvJTsnK5JYUvZSMlJqUt6lhqStSVeNGjJs17lyaWZokrTGdlJ6Svj29Z3z4+NXjOzK8M0ozrk1wnDBtwpmJZhPzJx6ZpDeJP+lAJiEzNXNX5kd+HL+a35PFy1qf1S3gCtYIngtDhKuEnaJA0QrRk+zA7BXZT3MCc1bmdIqDxRXiLglXsk7yMjcqd1Pu27y4vB15ffmp+XsLyAWZBYekhtI8aetky8nTJrfLXGWlMtUU/ymrp3TLo+XbFYhigqKx0Age3s8rnZTfKe8XBRVVFb2bmjL1wDSDadJp56e7TF80/UlxRPGPM/AZghktM61nzpt5fxZn1pbZyOys2S1zbOcsmNMxN3LuznnUeXnzfitxL1lR8np+6vymBRYL5i54+F3kd7WluqXy0uvfB3y/aSG+ULKwbZHnorWLPpcJy86Wu5dXlH9cLFh89oeRP1T+0Lcke0nbUp+lG5cRl0mXXVsevHznCoMVxSserhyzsn4Va1XZqterJ60+U+FVsWkNdY1yjaoyprJxrd3aZWs/rhOvu1oVWrV3vfn6RevfbhBuuLQxZGPdJotN5Zs+bJZsvrElckt9tUN1xVbi1qKtj7elbDv1I/vHmu1m28u3f9oh3aHambCztca3pmaX+a6ltWitsrZzd8bui3vC9jTWudVt2cvcW74P7FPue/ZT5k/X9kfvbznAPlD3s/3P6w8yDpbVI/XT67sbxA2qxrTG9kOjD7U0BTQd/GX4LzsOWx+uOmJ8ZOlR6tEFR/uOFR/raZY1dx3POf6wZVLL7RPjTlxpHdvadjL65OlfI349cYpz6tjpwNOHz/ifOXSWfbbhnM+5+vPe5w/+5v3bwTaftvoLvhcaL/pdbGof1X70UvCl45fDLv96hXfl3NXYq+3Xkq/duJ5xXXVDeOPpzfybL28V3eq9PfcO4U7ZXf27FffM71X/7vz7XpWP6sj9sPvnHyQ+uP1Q8PD5I8Wjjx0LHtMfVzyxelLz1OPp4c6IzovPxj/reC573ttV+ofBH+tfOL34+c+QP893j+vueCl/2ffX4lemr3a89nrd0hPfc+9NwZvet2XvTN/tfM9+f+pD6ocnvVM/kj5WfnL+1PQ5+vOdvoK+Phlfzu8/CmCwodnZAPy1AwB6GgCMi/D8MF5z5+sXRHNP7UfgP2HNvbBffACog536uM5tBmAfbA5zITds6qN6UghAPT0Hm1YU2Z4eGi4avPEQ3vX1vbIAgNQEwCd5X1/vhr6+T/COit0EoHmK5q6pFiK8G2xW33XBzZUT5oJvRHMP/SrHb3ugjsALfNv/Cy9piZMWX1ZdAAAAimVYSWZNTQAqAAAACAAEARoABQAAAAEAAAA+ARsABQAAAAEAAABGASgAAwAAAAEAAgAAh2kABAAAAAEAAABOAAAAAAAAAJAAAAABAAAAkAAAAAEAA5KGAAcAAAASAAAAeKACAAQAAAABAAAAnqADAAQAAAABAAAAngAAAABBU0NJSQAAAFNjcmVlbnNob3Rh0upkAAAACXBIWXMAABYlAAAWJQFJUiTwAAAB1mlUWHRYTUw6Y29tLmFkb2JlLnhtcAAAAAAAPHg6eG1wbWV0YSB4bWxuczp4PSJhZG9iZTpuczptZXRhLyIgeDp4bXB0az0iWE1QIENvcmUgNS40LjAiPgogICA8cmRmOlJERiB4bWxuczpyZGY9Imh0dHA6Ly93d3cudzMub3JnLzE5OTkvMDIvMjItcmRmLXN5bnRheC1ucyMiPgogICAgICA8cmRmOkRlc2NyaXB0aW9uIHJkZjphYm91dD0iIgogICAgICAgICAgICB4bWxuczpleGlmPSJodHRwOi8vbnMuYWRvYmUuY29tL2V4aWYvMS4wLyI+CiAgICAgICAgIDxleGlmOlBpeGVsWERpbWVuc2lvbj4xNTg8L2V4aWY6UGl4ZWxYRGltZW5zaW9uPgogICAgICAgICA8ZXhpZjpVc2VyQ29tbWVudD5TY3JlZW5zaG90PC9leGlmOlVzZXJDb21tZW50PgogICAgICAgICA8ZXhpZjpQaXhlbFlEaW1lbnNpb24+MTU4PC9leGlmOlBpeGVsWURpbWVuc2lvbj4KICAgICAgPC9yZGY6RGVzY3JpcHRpb24+CiAgIDwvcmRmOlJERj4KPC94OnhtcG1ldGE+CvgupwsAAAAcaURPVAAAAAIAAAAAAAAATwAAACgAAABPAAAATwAAJCpREsoKAAAj9klEQVR4Aeydd5ccRZbFo72tam/lvbACJLxwAsbszDmYr7YfYf/dZezODgNIOMGARggYQN63996bvb8XFdXV1a66q9pJHX2qy2VlZEbeePa+yKy7d+/OZmVlOR605Nezs7MuPGyDpH+J2ydvl7jPpJ/ZW7anhd/xzG9ycnLseWZmxr4P+0ncltfZ2dn2feK/xH2F/bNd4j7C9mH/YT9he75n+8R98T5sNz09bd/xPny22G/Cd/ST+PvEfsJrvudBC8cV3vNZOBZehxa2C8ex1Pbh8/DM7/ktj8T+w/GG/fPMb8Lvwvbhs/CcuD2vwz6TXydul3X18q3Zvu5pNz4y7ey0Yx2pu/h2M7MCQAwkOor5r7UVB2CdhW3CL5P2JQjbN2HfvA8HyTMnxr4AHm1W760l7ceOR1+wbXJjP2FffMc22WyXsO2C49V3Cz5L3nHsPWcQjpnfzDsC+qD/2LZ8Twvbhwtr75cYK9s+4bxtB34n8f36t6EXTUCOI2ESLrX/sK9wrmwXjm3BuWhjeuAMwr65HuEzxjP5/ML70A/P845FvyksyXHlVbku68L567OXPh9wrffHbft5Q0mv6smGMtbjvO/tF/5ffBve+vG2L+ZtHz5nX7TE/fM+qY8wKGyXuJ9waRM/4+e0ecfBB6FP/yX/7bMFvw3bhfO1zcKHSfud+9h2Z8ftX839j21DP4sdb/iMH8SPhd8k9Z+4XXznsXGa91v7KV8s0cJX6iPeX2zTRfuIfZe47ZLbJex7id7jHzfsKXAnTkdc1pcfX5s9+0G3u3N1NP7lzoudEVivEdh3tNC99k75DvDWa4B39rv4CAC8N96rdFnnP74++8kHXTsSb/Fx2vk0wyMA8M4AvB1Vm+GR3dndsiOw/1iRl3g7wFt2nHa+zPAIALwz71e5rC/+cWX27B973N2rYxnuYmd3OyOwcAR2gLdwTHY+2YARmKdqcS52JN4GjPpOFw7gvf5uxY5zsYOFjR0BgGdxPGy8c3/s3QmnbOz4P7S9mapF4n1uwNtxLh5aJGzwicdtvM8+vDz7qSTe3Ws7Xu0GX4OHsrsd4D2Ul33zT3o+8P4kibcTx9v8q/IQHMG+Y8rVvquU2Y6N9xBc7S10igDvDMDbyVxsoavyEBwKqnYnZZZwobOzYT6LrZwLpV6vc7NcfkGOy8uD8i465EKWfcKv515CLJ6dmXWTk7NuYnzaTel5ZpqHc9M867uHue0/LuC9p1ytqdo/KJzykHu1eXnZrrg0xxUWZ7tcvS6J5rmqmgJXGs13+YUAUuBLZh4nIQjQAbKpiVk3NDDlutpH3VD/pJucmHFjozNudGhagIzR+ZN++7C8BXhzNt5DADxAQ02ASbLCbEmzbFeg57y8HJebq9fFOa40kms1Afn5Al5ZroBX6ErLBDxtmyPJZ2058MWANzku4PVPxIA35SYA3vC0GxqccuOjSMEZe4yPTUsqzthjakrEcknD5FKMBw2Qca/2YclcBFVaEslxlXUFrkqP6rpCV1ZV4EpK8yTt8lxhkYAo9Yp0y5fUQ9Ui/bKlglelaiX1vKr1oJuZcpJ6KqgS6EaGJt2wHv3dE667Y8x1t4+7no5xNywJOSnwITEf5PZAAw/pBlhyJaUAT7EqmwqLcl2RnqMVUqH1Al19ocBXqIongJcvFQvIcszOy8KmS5Bsi1VPLQeOeJGSNjKbL0hCgW9sdMqNDAp4PeOSiAJemwdff++kVPGUGx3hIUk45qUiduGDJAXjXi02HpmLB6XYJ4AONRqRuqwUuHbvK3G1u4pMukXK8w2AhYW5st3kPEitItVwLOYANx94y4Fspe8CaAAjVaLT0x5Q2H2Aa3zMA22wb8L1dY+5zpZR13J3RJJwzA30TQmo0yYFw35W6m+rfx+nvm97VSvJhETKRT0KbEWSXKjOSHmuAa22sdDt2l/qahuLXLQyX9Ivz6vORJEWu1qAA69zOqby/Huklj6LOQ1LeaWociRsIoD5zFS8jg0JbIWFCZKUbq0P7XtkeMoN9I7HgDfsOlpHXX/XhD6blG046cYkBceRgtiCoHCbamSTeHi12536jpTiYpfIMaiWCq3bXWRAQ5VGK/LlleZJwslpKEK6SZWad5p09QMACIMoBAIIJmT4T03NmK2G3TUmFTjYN2khEgCT3FDpkbI8VyCVjiOSp37oq6BAKr5U0lXfB4marLoN2AJUsANRtzgiQ5KCnQJg0+1h19404rpax+1zU7/bNCyDjffm+9Xbt8oMCYKaRMJxwStrC1zDnmLXsK/Y7TpQ6irlkRYLcLnaJvFC4zly4ZBqk5MKbyj0AdiIuWF/YWcN430KeIQ+pgW+KTkH4wBPoZEJqcbFWr5UNyAvLBbwFAtE+pm3LHVun8fADwB5cOxhIgQpGfYLEIn/jQ5Pup6uMdd8e8i1Sv223ZMKliMyoAmAHYi63m7OCOGUN98T8LarxCuQBCuvzDMVuu9IqQBX4qobilx5RYGFRAoEBCQOqi60IFkCwAYU8hjowbYad72deJfYVZNepQl0XFRUK5qN1wBxqQttEwEPWP3hAftnPzmCvVlRXeAqNCFwaPCmo7I3iwnhICWTJDH9zmhyjGtCjEoC90sNY/e13h1WzHXQtTePut5uHatswO3U5mUutgsRFLMMScHFqtRFrNtd6Bplv+07jA1XbKoVhwEJZ2aQ/iHZMOAx5MdGFcpAhUlyEWcb7JddFYAnewrpMqLvkTbTMcClY0txvMG7Lpa6rajKF+jyXUW1zADZm3jYEcUJSyWx+b6wCFVNfDEA0duvTBjifRxzR8uIu3t9UFIQ9TvqejRhOCekH+e81Vs8nLJdSAJcRGykiuo8t/9oxO07EnF7D5WalPMxuFwDJReaC+U9yFldFAGqc8x1yVtsbx5xnQpf9HZOxACGDecDuOZl6uKaY8HvuYgZuJDhuHF+vHr1wWsyJZgBTKLyqjwL79TvKXE1coIIXJdE8hIclSyTtASekdbEAQnD3L81ZCC8dXnQ9WribIcA9LYBXpAaxNnKJCEaZcMdebzM7T0cdfWy6QiPBBsOsGCTIeFGlJ4akHHeC+hkoOMlArweBWz7e7w63QrSAU88Kg+8srbQzgfvG8cIlVwWU8VeAmKr+iNmYiG1OZ97NwbctR/7FYIZljqW96sMiUnrLZqZM+BtB+q7eYa6OHirx0+UuX1Ho3IiSlxZZYEcC+88cDkAHTMeaQDYuBB3rgy6NnmDeKN8TkwMlUtWYSlbbaPBGFQxaTk8b0JBpOvqFHc8eDxipkRVXZF9HrxijtGknxwebD88Xuy+y9/32fmOj/iwy0afSyr9Abx4sc9WLOjGQM+RasX+4SLsP1rqjj9drgsRcVHyp7LlaBZ3kwoiBDEoG4j0U4ckQdMdjPAhyw6w9h/xr+3QmGiAsEpe+v5jEbf7QIkmXbHe+7wxoSG8ZQBLm8T2G5jQRBtyly8pESAAtsn2G1LwGe99qbjjZo3FlgceNhHqdffBEvfMy9XuwCNRGefe9gn5U1QOthl2HLP+5i8DZnR3mTodN3VLPG4rq55kAATTAvDhcJTJCQGEu/aXuMMyMQBhaSRfOWUfJvITz0v6vp4xZaAG3KUvu929m0Nbkg0TT5l98dHV2bN/6N4y1Heb8TK6I+U+VHLwkYg78VKNa9xbYqktwhTByxuO5Ty720ZdsyTcrcsDru3+qKnWcUmCB6EBwNKoVK/s2UOPRiw4XiUbkLCRp2x5ADImmA+t94fdD193axL2W8gFu88m3xaR+PHMBcA7J1rUVsnVEhCuFA9ur2Jzj52sNO+VmBcqxjsRfoB7u8bl0Q24ewot3LvhVeqQwiPEtdab5RGM/ABs7Mv1amYDSvoTtwSAMGp2HSh2ew5HZAOWmQpmGx9C8hmWPjFfkHi/XBTPUuODBiAwvhVafH28rQK8IOlQK/sULkGtPPJUpcIlhfO8VqL5vUTzkXCa1XcFOpLqgG49GiCztFzM9iIYjBOQIzsLNUeaa45N4ifFegKxBOknm5fY5aHHymSKxLI0ckoSJ0SXwi1Xf+hx138ekJM14Lpk+24FybflgBckHQb1iReqJfHkRCicwEyncTHxWttQJd90u9uXvSrpUwCYEMJ6OA8GOkkT7E14fBWaFEwEiAdI4CnZl/3qv+2+UlltpLKQuArkhuDzOswEjgXSalSmCNLvoNTvMy/XKnNT6rMlsZAL3jvhpPs3B228sP22guSbZ+NtpqoN3ivEzINyII4+We4eebrS1Sj9FQCHZIHDBnGSAfzxnzKeFTyFPElEP1PNSzd501xcec1Q4YvEZoHHF4HHp2OsAXi7ij3w5E3Dq2u7N6pk/pixSYYGYJJ4qtOoJgShm1nZXpmWguSCOS5zvmQDH3hEaldAJPBs6boYAIPku/bvfnfz534DnwXJNaab0eIB5M1Wtea9agAPSL2+8Gad1Ee5pb648DRCAiTx798adBc/63Q35UCQJhqRzYKUy1Q8LoAuLz/LAFclgJEZgcdXLm8aCnyJJfqV2pLEAZxkR4zWPkKcUKwWedfkfTvblNCXk9Nye8T1KVgNEYG8ayabTVhJYzxfbOJDj0bdqddrdcwRTz6IhVuC5LslDfHNJ23utsItBNeJBmxGA3jGTtms8kYuNEYxzJKGvcXu6BNl7tRrtcpMlNp4BC8NCUJcjhl78fNOs+0yER4J/QM0QE6RD8ySEl1IArg1Uqeo+zplEsoqCvVdnqlcL01i4iR25ThWpMiE7L2BPg+8VjFJmm8NW3oOLl2QggSxib15apM3IdIBgJ8wWW6XMjqnXq/ROJYbcYKJYqwXNlBrvTfkvvuyU1mOPteiY4PnF44hnf5X+1uAZ+WNm1Vl5tVZttsj4/jkK9Xu0OPlrqZeEXqpChqpL6hK5CMvftbhbshI7hQ7A0lnaitNAeL7z7JEfa3IBuRIIRpUxDxojsO4fJYd8ZT4xUAXBh5zgAd2n7Ff5ATBqcNEGJHK7ekYdffvDGkSjbo+csWSOqbyMkAuAVtw/qplgx56LOpOvlpjkg9uIMFmGrUe3ap6I8xy8YtOjeuwWC8UHqU5kGEAUnyO23ibATwGiuQ4RvpReWaoiN0HIwlxOmdMjLamYXf9330aqC5JuhF/oVZrm6gv+mP2k5T3qSnx+GS7ReQhVtblu1ql41CptQ3Fkm4F2kYXLFCc9NvQQk44vE9+RvKFZiQFHevkuOw9SbmeTgidojPBKFF4A4kDEwaP2KSgAOttL+1hbjdhdys+c45okEZpj2deqTLJ17C3NJ7L9lJ5RhkdSb7PO9z1n/rNHKAMM+GwV+wn3Q3iwNto6jsDRHiiXlLmxAuVNkB7DkWNnxYuLF4hNt23Z9tNxZLgHxn09w9b7SAFW6iwRMl4MZKravNNuuG8VNXE6PBWTysnQh405EwuINJNRzovRLGaQec4zVzQuZgaFgAJeI9IEgI4vHFswY6WMQNjv2xDs71UGmnnuEbwIfmoBz4i0+WFN+tFpojEuX4cD/T6ZoHv2g997tL5LtfaNLauXnjymM0FkDd4YUYkDlmJA8q9IukOHCuzsAm5VwYG0mOfgsPXf+pzX3/cbsHhlJP6zHoBBjUaJBsxt0I5BRT+lIvDR4UZ0q1aiXdScEg+csKJCfgwAZIHba3vOS8az4CQBP+g8qtUmXW0xHh1irNBZmCCwa6hANzX4HoVjgRNpQXJt1cmzItv11qUAKYL1DHOC1OA3O7tq/3uwqcd7paIFPRLPcdGtDjwNpqPV1Gd7w4pDXZERvDxpyrMrkKtIZnwUInT/ag4HUYwdggpn5TiYkhSPchhlkQVcxPIAFiN0kvQ4Ml5Fstugw6PE1EooKNSASm/S0e6pXrBAB4Y5HywrcYMYAKZwi84UQCAfCshkC6FZ2AZw4ieHBNgNTapqmDOB5LpHuW5GecTL1aJclVq5gbHOq2+O1uHpU367HH930QKJlI9jbS2A3hzKwlswO0GUF8QIfG+nnqp2jh1Dcq/wqejUeNAiR9u/4VP2zUjY3G6Jdx+Bpd9AhzAVqAHYQ6WnigTJR7JVq+Eeo3sNhi/EX1OsTbGtgcaQDXELTqQBhIJAWQVm/nH6rZfCcxxIAqNxCNHhic00VToLUlImWOrAtO9koSoYDI2liHRdiyRwSQFxEs1xpqgN6TZZ6VZSK9BJQsBeaQebObrihZ892WXFRQRYkEir2cjc2GLb2+UxAs1EgSJn3+jznh1oRiHC0Du9faVfnMmLn/XZ7aPxekkHRZrBjitacKyE2WikxPcrd9dYjEtqy6DUi4JR4aB4po5ZyFIuMX26j/jeMxDlUrk4hrApY55Xgys87bXLlD34bEyYOkz9OdTcExCbEEmIk4InLsuESEsQyLHBMo+nLvlwBdMjtqGAnf0RLkmerk7LEcOwqmp3BiV7J7y3d9K5eLt9nb5Mko/CuvzH+AZH2/dgWfSIsvYw3sPSfQrM/G0JB40bwYgXGAM3u/PK84kb2u53CsXEgBYOaMGFclGfhdnoU7AQ7qZOqVuQdF9LsBiYEkcVsCF+rNg9UTwNKGY+/wv6TzqcY0NIhBzDKEF0BGu6JWDgIdKn6y/QjjDbEw9Q3XHnFjuWNhXaMEhodQSe9AKfe6p3laSsEfpuV4RAfoo9pFXvFwjt1svr/2oct/PvFIjfl8seqAxpL92RQ6CaXNH/EUC3nYcc4ey3O5X/V0ceOsdQLYEu06yYU+R92IFPEIniH0aWYkhRfxJ55z/sM3dujq4bO4VSUeinjLGx5+tdHsE5mi5lqGISbcCASNHF9k7DKldaK43aoZioD6lwOD2dUrCoOYAGVkMSif3HIyqss1LjAA+D9ZpcxKu/NBr9hn7I52FdGFCWCGSJHCQuuFqLQtCTQSblOaM+JAL4Ob4oIHdvT5sxM9O1douZ/uF3C6ZoZd/Xa8MR5kVGAUiLV4uJFLsvUvne2zS+8Dy+iAvbuOtdzjFqsLk4sMgfk62BiceVawM1csFGlSknxO/Kvf+X8pMtNxd/r65ltKS7XLweNS99Kt6ecVRk0aEQQwMMQkbLm7iM/0xm5FuFPngPeLNUStLkJcqrm7R5qlfRbWhesiJ1u8tUj8R9/jJamUyimMesBd7vgBnUiyZAffNuQ6zlVCBSDpIBeR2GySJKWlE7VPKSKaEyWN1tTmpSUKOnf0OD6mOROwcMjlf/aPdHDAD3go4adA5nDxd7Y5J7e6S1MMcAfgwVmBu35KZ8+1Zebma+LaA0BK2deJ4ruW15Wrfjd1uYD3XTgmi/ojsi6dPI+pLzeZCEgIAiIvff9VlXiy8Ory45RrFMSxPcfjxqHvlN40Ky5SZ05LNBeSHHg/zdhFUGBePtUuQshRndymbQC0tud8+PVjBaUCfW2CXBL8Gn1QajBT6e+61OhExI/PUN9sABiT2F//XolzokEkqbtdOSAewlSqUg5cJ+EjkA0akIZK6WB42Enolk4BjZ6aaEyagXP2x1336l1Z3R3w7C7WsADxCWLvF4zv6pFSusVlKrE9+yyRs1uT/IQVTZ97AruFNnCSAjbdewEMCYfRzssekYo+fqJRNJlWlP5aHoE4CtsnXH7UZbd3iSSuwTag7jcprJUD66m898JIr8RkPLhSAQ0r4EkZfWzuqhD6gw5npbPWV+ahU6E2DsUVysK9C3KxIweVwDi++Ve/2Kdid6GSQ1sNUIPzz6V8EPMXFvKryV4VtA/GAWtrKGh/ABoDUBiP9cYII8ZgTJNswR5PIA3HhlTWgqz80xCd/bDIJlQrwmAQIgUNy7l56u87tl5eL3YpGYpyYgMROr+o8cO4I6TCGmW7xXO162XiAjkHfrVqB587UmojH3qFeQJc1ljvUycq2+OZcp2sSYzYV5nAqwDN1qkEDAOOy2wAatpGVOhK0pQpfEo6CGMBPKAMGCWrTQMOAxwY9XeAxDmbnEvYRIcEHtuWsCARw6gAgYR+kKhKRAm+C2vnBdNChJNqCawUe1wJ7j9qNU68pnGVkAtVvKMzE/rEfMS+YQF9/1OHua9mM5bzmtQJyDnjrRH0PTgAleq/8R6O580TPMbBRsd1Sc7jwzLBfLmKUy0hOoS0GPAaV5rMCivxLChH1J1kfamspeAZ4LITIbLbArNJTK8Wt0gXeglMCiHoAQuKOrCxgmRSrpS0w8CEFiTsiBYlPJtqCxPBQ7auVeOE4WGPm2ImoaaBjT4rhjQaS2cM4EMLBZPjsry2W0bDMSYbjenFVu163hgcgrG1yWPGj079pkC0WNVsmAOTezQF34axysQqfQKIkSJpKWwi8qA0cMb8xU6Pe+KbM0Vbc1DOqdEi2I5KNVFTiotgrqZOMA4+TFPCyKd80NUzYhYUj9ZBaD1IQWladCKdw7SJlsRpiBb+RyEintQIPb5vwU8jl7iOXK2FAA3zUsZz/sNXU7nrE9Qx4OBfrBTwzZg8Wy64rd8+cFjVbWQpEelAVNwif/L3V3VQ9wGoKkK3yviJXlG/ZKrK5GrVYD4CiYHtAUX/yvCxZgcOAOqXwhSDsBJR0qc+VgGZXIOHfugAvYf/hpZEZpAphPRMQr5ZtjCREFcOYIcND7DJX9h98RDI8n/0V52IoJeci9BM00X556a9IIBBU9us8+1w5cb1LOHuyIe9q36QsM9niwGO1qPW4X23drkL35HOV7thTFSpMVk2sAru0kKrBlriAbafFZ1ZD7ERFkYvdq2KXp1RvSw4W2wSpaSq0R7lPBV1t1QCz3ZRiUm5yrfbKRgEPKYgKtowMwedYCtDIqayvIqeEIh/sQFjH0Kv++bEP39hkitmkK4GEPjBNoE+dfLVajl+FlY6G1CVU/vs3Bh0xyUtfdRt1aqV9rub7ORtPXm0mVxLgxJBsJKhP/6ZO9kSFhQ4wmGl4Tzd+7tWJedvOAqCrOHKbsYQ4ZJtgP+ZLpQO87nZJO0m4YbE7UBnBK13FrhfddMOAt2jvHohhfRUcEMgPaJOB3il3VUtWYLOuVorTFZ76MS0JYtEGqvlEwqVBWGBJXGzvL/63zar4grNmG6T5D+AZ9d3u3pjBe5kRBsB2ofj4zLu7NKPKtcZJzKnQCEHBvigi4hWdWLNqEghhrKahkugDWw/VQ19x6SYJh623GgmwUt+bDbwgoQhkE3jGK+Y1XrhfKHJtdCZii/XKJhFQfv71OlujBYEB8xunjGjDRx80W5iLiUwWJRONzMVb79e4rEwDz1gRslOI3b3xzm7FjcpMtBOewDC+fU2B1r+1GCtiK63atNSgbjbwljqudD8HwATiqXV59Xe7lJkpi1PEABmrMpz7c5MkX39GMxkAzxf7ZHgJC19wXCgRXuaeP1NveVlmkk8tTbkbClJ+8ifNJNVQpEzwTHeU0/j9gwq8ENejOu3MO7ssrmerbxHukspoEWnjW9HTULmtKt/MVME8wLOb6GXauaiQEXz4sYh5s48pt1mj3CaNmBAJ6Svf98RSPUNpwGHjfvqgAi+MICsSvPb7BnMCy0XcwJmhYTdf+b7bbPGrP/TLNs8MUTQOvEzX1dbvKRTtqUonUq5KJ08+5ETwZllIEIP4m0/aXZOKd7ZDe9CBx0KXz75WY8BjYaTg3VKmCXnjyve9ssm7ViRvpHot5wEvk6tF4c2+LG/2uIBXVVtsXH8OitzoHfH8Ad6P33YLhNvjVvQPOvAgLDx6skIaqiJOFOV64d324t0qrPL5X713y+fptjngZTicAn3ozXcbbQYF4iQHS1H2z/9CdPfKU/Jr9qZ7Ehvx+wcdeMRBKbyCpfzUi6J9icJFI9APFR9B8dH/iIwg8kMm2tyiPRkCXiB8HlZB8dvv7zavNqzdi7HKvRq+PdumMIrqORX8hPOVkRYLvFoYR5F/WggYZ2L/mwU8wig4ZdlayYPYJVGB9XDGCEbXSurhDL7wdr2ItRHrlwgEK2FdF/3qw/9uklM4YFGJdMMq84CXidsNkPwnDwjF+o13GhXHKzdCAAPIwVJP8emfm809p4iYNFcmWojr5Rcp3SSCKIHjoT6/1nEm9r9ZwAsTiXilPy9qYj21y+KUmTg57SMUBRFWSQx/0Qfxu1uX+9w5RSEgnlrdrxg86TRLmb3HreEzxE6BUUt1F3SbV38HT87z1gAdxEsfkGyygCTBT2bUmpvATODYKEZWWZZrOU6S7CxZ1nI7c+7/ZgHPVoPS+ZCp4H4eTLDuNvLOE8pLewBmIkNDWIW7kLP0xVvvKeD/RIXxAiHWcu3uXBuwuOs1ST7irpAs0mnxlFmm7uxjNQYKpZCCeUnJ5326HQCqAnGNR0vS+ZyIkndErV5NbnbBSZoK8jUNhG5qlRNmcUIW/2GgOrRK008XelUDkRrNasH+kz7YLODZeCqtxcqojz5dYflZyhFZzZ56Y5bBQAJBk0qnoZEAH6UJr/++0XK3rEtIKSgm0j2tr/f1hy2mqWx9PU3sdFpc4mUKeKRgcM3J/z376lwKJp77E/A+/1trLPenQ1/leBl7Q6myfOVpWfMkFGw37C824LH8BLUDd64MqS535dqNVAdvs4BngXiFpmwVLY0n59vb5UscWQWVgqTeDjFyVAJp6/DJGTAVvMpxZRwAH0uynf5tvaXQKIAntw7wwipT5NabbvlbN6Q6dottl3HgGcHwSU8wPG5LyBaZxKMQGdLnFXlH5//epgUVh1cNOk7AV0uJHCCeGuQAmLSs8MTqTiViNeOFsRYJBcr/ekCARy6V1OOzqvWApYz2QMoN9FNppuV4lfdmKbT7N4et1NEYOGvUhHtUj/Hir0TqEJuopr7YqvYAXo8Y24ES/8t3qRN2FwMdn80DXiZoUUaDel6BY7nl+0WDgr6DqmWhmg7VNlxVIPLrjxQ4FjEglcYsxFPGjoOjxv0uouLhcTcfOGTw++CpQUBAVUCOBHiU6SHxmjU7sSNRv2ttOgQr1KGU8ogm1anTkuTxJV/5NoQdJrUec5/70viFy5dn2o9S+Ifp0Lgf4JVrGTetGwifUX+cD/UqSLp2rbvCPc1uq26lQ4vvcLcfquUmVTnHuZsETKEvNmGFh+fe9CUKFMZDwQd42JTNWkAJ4ulFrTjQKlMmnWZxvEzer5a62WdOk7GosKLhUDdrGQupBSQeGYtmLZSdSjOjV9w7imP2KjbIwLB+XoWqs0jtUEdLXQJOBrqCMr3+vjHzni9oPT1IjOaFid6+lmbA166rtIwZbF2cJqrxWeyHCcWDhoE/oZWgqFG4+EW7u6F7bXBf2dEUGdWLHRu7LtP9zfYeKTHgPXFK8bVdEGn91njuFDD5wiVuKqOSTC13cVuOAMviwr5G/bJdquBr3FfkTmldPWhs3JgQO4+G+dKuSkDir5Q/Nq9QfuqPcOn/AM/WTsmUjceBQyxkIR6kAqV7NIiFTbEZwxody80YBtbz7bi1kqSceGdIOBb5YTCwPezmIiJKEm4IF59+Qn0r5ZK/6A43JLmHB7gP7dp0D8eCXWnLvMrjI75VLyo6NPTEfpFAgK+7XWpeUq9JC0l2KCvDHRXX2ugbzh23FWCZsQNHy83GS+yXfSORACCUf1aewgNt0Wr4kETJFBG2YjHwVOKaaKwTaCyIu4pIsLIWzW5eI6cGjfVPFQGlm+qcDzzdYOXOlfREqM0YVS/ZjEkAHksvXP+p10T1cjaCXWhJLxaawVMFcNhx1B1QnYboh48WqvEXXAQAIPVCqSE2JTN1NZR6G+WkfxwTah76ORMJtU7cK7FvJAoA4OKz4A4qkDVP0l32q1Dxu6gke5n6xaQIi+0kHaKp3sChY8UpqulI8LdquYt7kvqsvwfn0SbgMsKfCXb0CdnoSnU+8nSVjTl9Abw5UwnGc2oaK/k4w/t4yuzDDy7PfvX3Xhmo6eVO48BD4mklyiDxuLX55UvdNmOuLbIclqd6Q+yUlBOxEyelUZ4qtRQ8kHIlpXLvdcFDS7zw4TOeAQDgwwi3B5T3Ndp4wpw1gA5jw9Y+ERJtgvAvodEvAETycddvViiAkJpOw4RgolFhZvcuk4RfqoX+qd4LlXXtzcN2X7MWAZD436AmRbgfh9l/SYqAarcDx3S/OF2/J56riqfOAB71x5AFKHvMGPD+6z8vzf58AfWQXlHHSsDjwJPXYeP6FSg8wv1auV1moyQckg4qldlxKoc0KafqKmy+VBoXAbDNYN/oGUCspYXecHDom6owKV8D3mL7ox8DgPXt+19su1Q/Y2x8v96kSML6gt348wwTT3lWip/EMEHjtEtVhsXAsf/GuLujJmViC8BDYz0plRtytgY8OW2o2q/+kTng/T8AAAD//6HDV2MAACTNSURBVO2d13pc13mGF/qgDXonCVKskiyRFGV1kxJlJ3acx5Kcg1xInuQmfJZLyLllW3ZsRYVFFNUoiarsnei995Lv/feswWA0AGYwGyAoYfMZzmDKLmt96y/fX3bOH/7rk8W2m9NudGjeZbM1txa7p0/UuoNHqlzzrjIXrSyy3fV2TrrLF/vdla8G3fVvR9xA70xwmBzncvQoq8h3TbuK3c59pW7fYxV6XeoqayKuuKTA5ebm6Ds8sjmzn95vFxedW1hYdHOz8254cNp1d4y7+zfHNP5DruPepBsZmHMzkwvLBqayutDtOVhm8/fkszWuYUepfT4+OuN6uybcVc3fR+/0uLbbE8t+l+kfrQcj7uTr1S7nP/79g8XxkXk3M6OzzWLLFHiAKSfXCWQFrvVgqdtzKKpHpWtoLnGl5QWusDBvG3RZzMei0Lcwv+jGx2Zcf++ka7s15q5+M+Tu3xp3/Z0zbnJsuaBZAl6le/LZ2uXA65wwwfHxuz8W4CHxKvNdy+4S17Kn1O14pMzVt5S4CknL0vJ8VxTJd3n5uZJ8SMcMxJ7W0KL+hbNlJnGRNsEWf+HfyPA5uN5MLpsDIOkA3OzMvJucmHMjQ9MOrdNxb8LdvTHiuu9PuSFpnamJlSTeD4HXI+Ah8cIC3itIvD/8p1TtrY1XtZz4tURVq0FiUPMLclykJE+qucBVNxRppRUbABt3lrjquogAWOgKCgBfoHbXnD1Ap9m3f9nOvZ3jEvBWAj/H8xsvgz+X3vOfZfYcHNc0wxroSzz+3NyCQDUnFTvlutsnXKcAh5Tr7Zhyo4OzbmJsTqBcdPNzy89vSeJVSeItV7WhAu9AxL38epXL+Z///nLx+wuc2Gxm45L07ZVUbX/3lLv+3aC7+vWQu/TloOvrmk76ZfBnfmGOKynLc9X1Ra55d6lrEvDqW4pdTUPEVVRJApYWCKQCYF5uSpsvmHCt9OkFDa5W9NS8bJwFN6/Vv65NiwKZU1iUZ6o/Upzv8pG+eYEkStwnE8+xpnXMqUkec/Z34ncyfV1QmOs4ZqQ4zxXFjp1qHxwbKQeQkHKjw7Ouv2fC9XRMuq77E8GjTXbdoM5JgEMaptqq64rcgSeisvEq3aNHa1xdU7F9DRsvbOCdeK3S5fzjj5cWP357UDZAakCkOslU7wG8Y8dr3SGci9Yl52J4YFr7HnVXBLyLH/a5zvuTqX5u9l5efo4rjOS6kpJ8V16FBCx0OwTCPY9GXWNLqSuPFunz1LafH/zhgSnXdmdUBvGkTcLM1HKVkvLgqd4UvlDxVTVFbtf+qKtrLHZlSF8BIlHyecAzQX09k1rAkzLmJ934yPoXMtAuqyiQ9Nfiay52tfXFrlgLL/G4nPIS6LTYxmfdkMa64864u/n9sI3zyMCMGx8NFsPcrHSAAMr5ptoaWiLusCQdzuHuA1FXWRs4h1xXd0egaj/BxruTvXNx4ncC3rl3riye+vOAu3t1KtX5pP0enulTL9UY8Fr2lJuU4sdjIzOuq40TH3Kfvt/t2u+mceIa+cKiXIEvT85Gsdt9qNy1CMy1WoWV1UWuRJOAJEL65JouclrtweB33h93l7/qd+2agLGhOTctCbiejd0CPCTw/p9VuF17y12jPL1oRVEAANChLfAeF8zzu3FJxru8x25JmLHRueALGf5vu9V/FVp4O/eVudZ95W7PgQpXVRuJ7YlvSMJJciFlx8dmHYt7sG/KoV0A3u2rY/Z6ZuqHKnWl0zGNdbzOHTxcKY1TLtOn0L46OizgtY2bxvr0/Z705m+lg+h9vNqXX5OqDQt4jTu0Yp7Tijlc5Vr3C3iSFKzQ8dHZBFHdnbY7Dqiw/4qKcyVp8l1tY8Tt3B84INA1VaJciiT9UH8chxXfJxVz89Kwu3i+3yYAWwZgrHvTHEcleZr3FLt9j1e4J35ea5I3J8HeZPInJ2bdnesj7tPTPVrAo7pm7Kj1Ad6fa7ls3qbWErdfx8XmAvRcp0lYXdP0lBwHgaJLC+3ad0OuUwsadTo2NCswii6RpEetriTh/HH8c4s01jOv1tv8cazyikKTqCNDMxpLecQSHF+c6zU6xv9mPc8Az5yLc+9eXTz9pwF352pqFZjuzmvkGBzSajn4ZIU7cLjagGKA0IockAq68vWgO/92t7t3czzdXS59TwAoi+ZrJRbrUWKqHElYJbukLFponB8eXBcrU5TBBQGg466uJwvM+YOXlOe52uaIOyj757mTjW7nI1GTtFwb24zsKtQRHNmZv3W4W1dG3bzU2sJytsLvLu3nUvGbjTuLbTx/fqJB3GipSTnsyAkt5qFB0STdokluj2mxjbie9klRJAuSguu76B17Stzzv2qQxqqUfQelFQBvoGfK3ZDqZlwvfTEoDzk7zRjn8T5879riqTf7swZeuWiRZq1QgPc0AyXVyOTgYQ32TZqo/uDvXe7ejbG0V2HiLHnvFyCURmX/yPF45FGp4D1lsr9KDGTYIte+HXRfnOkLgJe4g3W+LpbDU9sow1vX9cIvUwBvel5qNQDe6b92uNsAT4b+YnYCzyUDr178JlJ9oHdKXuqorm/cdYsM7u8WIzEik2Ji3oC5nuOyhnY+Uupe+nWjqdpq2ZQlZQUm8TrvjbkvP+y1+Wu7JakqiZrNFpd459+7vvj+n/rcnSvZSbziUnmkdYUCXqV74ddNsk2iBrxZJkYq4eo3g5IInbI/RjNSAckXCemME1JVJ+L5QJk4wDKpvxLzeGHp2yRRv/+clZmds+SPC/CQ5gDveQGvdW+SxIsB75okwhkPPFRctsCThG+Q+fKI7NvHf14j1VdgoOuWZLsvMrhLTlq/pM+EiGBTp+sTdJojbNkcORRl7sRvm3SdVS4qFgEnDufl3s1R98k7nSbx+gRyjpfN1io65ZU3xOOZxPuTJF6WwMMWq6wucPsFvOP/0mKeERe0ML/gZjQ5N2SHvPtmm7shtWC21wpu/ZoXpYFisHA+SsrypWoLZAjnu0Idn210WCpXkmBMz2FsDwp4SPY6qfgGqVs0CUDGcYGOwmOeHFe0SWGvOcZxnaBjfLwtve+xqPvlGy1u/xOVRtxDW2Ef35Xt+uHbne66FtZAH8Rz9sA7+fuaGPBCULXQDPBweICv/K7F7X2s0iQTIOECbl8ZdmfeatfKGZanK+N3nd5mMpgCCkY0jIDIAzU3NqxJCWn/Dwp4LOQKhROjVYUWz8ZZgAzGgTCnIUuJ6seReSsVyA88oXl7bYfb+2iFgREpyljavP21XSbMsACvecvSaTIb740Y8N5/sy9rOgXpBgj2auX807/tiK8c3kNkt8sI/uxUl7si4HWJbuAiwthMVUCrSOBxDgzYnAZsJaI002M+KOAhiQpEqucLGPkawwUBDWmDF801ZiPlEscArVHfJOdJpsRzv5INK9oI2xy6BkL6ukykd/4oTfXdSDCu2bAEOnDcucCrxbm4ey07b8VfzJ6D5e7V15uNiMTjhG9j61H45vvP+xRsHnI3L4/K4YhlqfgfbtHnBwW8zRqOCplHu/cHWSlHnl9KDvC8KKHOdwU8vPUwtjjwPhCBfDoEAtmflHlHv5FbLj7Pe0d8Nihv7JbULaGzbz8bUEgnHKD7427U848deHjsjz1VZfO1/2eVihYFRDWhv6H+Kc3XgDv71y4lGIyFMsRx4J39v8uLZ/4ymLWq9WfVJGP46ItEMCoV7I+6CkUa2PBsiWCQl/fZqewZcH+8jX7+sQOvWRGnY4pYWKhTDEFixKJDVAoS78IZEcfwoiFsceCd/sf3ix+8NRyaqoVS2U+wWWTyY0dr5ZkFweZprSBCO1e+GhDt0BnaCgphLFbdxY8deLv2lrrjolEAHmG5iOLkbH2KdV/9ZsA01JWvho0vXHWg0vxw98HigE458/alxbN/GQoNeEQYPOP+zCuNRvBirGIUQyZfE8N/6i/tsvNkrBrDnyEXEKNTMLgL5MXiXPg0n0xCRGmOk9sqwMPZwFGDSM/Ta2x8I43lSK1nMxpF+4OEh4U4IBqFGDjODM5gx90x9/kH3QLesF5PKEM9HGcwDrywbTwoDcCHe/7y73aIAA0IV7wwPCXc87N/b1eIaVgseBBTzGTgjEDWwMNzEcDnb/LMyMKAcoACCHPbCsBjcbHISqNBihb0x/T0ohw2EcjrZAdsnhSW2/+zqDvxr8xTRRL9NeLO/g36a8hAFxY9FQceSQKn/zyYdcjMT7bRAKwk0SonXwsIyWKJb3Lp/Eq6cHZpJWVK9Aa8Xa5FE2D1I4qYDCv9B/Cxr8lxhY8EQPimOXF5gN3oB3+CGT5vNvAAmZdunpssUqoYYcLK2oIgNi2+dHhg1l2TCiSasB5qpRTNpKTbg4cr3LOKQRMBMhqFRFLlE974bti99+c2iwNnRfgnjbfZePB4YSUJ+P0zcGRv7FLs78VfN1i2A5nE5JOxpZsY6veX/MzKL9PKJ1x27Bf1liyK/TiqGCJxzP6uKbNPKCoCkKR4Z6OCNxt4LKyCSI5pjSrlxCHVa/Soro9YRjZJoeTVEcX4+J1ud//2+Lp4PfZ78HDUHVKk6dCRGks5Y6wxh8yblaQ7p9g63uxqeXzJ87PW3wDPslPCShJIPqAlFj5XbcDbbYmFgZtOfh4p2cQ2L5zuVWLheEbAgNGPVue7fXL9j/+m2fLkCMtNSNKRCDmgnDSSQAFgfw8p/bNGvEIPoIrhp+JSMA2tvJHA89INu40IApKtuFRhQKnACoGOGHGtHjUNysRRmhmpSqSBTYpIJhsGWxl+LRNC2R+zeVeJFm6NMomCqsDyWP4dDuB9xWevKpuI9LKVEneT5zvdv+PAC1vi+ROIKpERjwnv9uiLdXI4gnwyUtMtjeh7VlSQNIBqTNc2C4CnmLBsSIC3W9nBnmmfmQ7U7LRUxZhSh4IEyWmTsgCRlB6Tgopxcrx0JmyjgOcBQIy5vCJP1XYCmHIOyTusFdAqawoNaJgpRUp/p+quQA8WzYRSzVi470sV3lLShSUkpLGImBuTqNIaEP2/UDIHIc4yARqiH1OIpM9vPu03GuX2tTFT6X5Ow3iOJwmEbeP5k6NWoEo2yT4B5MV/DgDCRbPNy464d2NUGcldVgDUJylF0DudLRl4ZOfi5aHeGTjsHZ4sT04TNKoqq37llPUJdN3iEQf7JAWxBZUsSW4bRvOsDHWC7Ysp7MFQgIfdFgvp4TUWaeIpcAJQOGJRgQx1Sp1DrVLsoTXIRgEMPtHVjw0Sm4ULEb8e4HHcgPKKZdsoiwj7m4UAqEkK+Phd5kVJATJX0p0Xf35rPQM8K/YJ26v1B4buYGD3yl0//ttmxXArzF3Pk1rBZojbeordXr44lDZPtBrw7NgB9iwxAYATb0SikiU8pqyOUSVQDil9igTHPiVSDvTIFuwPahPMiE7yirMGHjavHqhT6kkI+tc3oT5ls+lBKn+53iuX80ARO2NmmdWxyjriz4lbtsCrro/xrNh2StgF7CxaNAD2HRncZ/+3w+iuKQkD4t5hbhsOPK9Kdqpe9lmlVB+QyiVhk2JtJBMp8ZCU2CqfiRlvUwleOsF97KCopV8FqnaP7EdSeJInKHGwOB4Oxqy4RJIpsTOpUejDDpS0HZAtiJdI2vgE6UZK46Iii/OJlOTK8I5YBdZzrzbJaSo3rxP1zobpQCIoEuKM6AfLNxTlZWCTdMMzLdY+ipVYWS7pRtY0JZyo1Co5DOWq4ShVoL6wSDXESG4D6nKwJV6L5Tdq7LDBzMZLU9UyPggDKvgoysJUIcWdtDKuBfVNpjgq/CMV9dyT80JWUbZ5hYnnzusNV7UchEGMp8TLbT/wZLWtdC50TipjQivsjni9jyTaIZShQ9biiwKpIedChOfx3zTJVpGqoORRA+vBwLGTNwOfMjyQgpDZgAuHA0nIIkACUqRD8TNOia/QwuivV0ImvOQzLze4HSpkYhL9sUwCqZySfMOzSn2/fZ0MZOUL6ncsENQa0ZtaJJy8+ygSTgCMIN2UbIndhgni98mYrbRxDQZ0LRwD3ls6HsBDKK0hmDgfKJRHVLH3/C8bVLlXIcAXmFPDfmEEqE6Dt7usMtQemSbp7Helc13p/Q2jU5IP6CMZB2TEHn2pTpGMcivQBiisKFKrL57v1UobNqm3Vmo1qUKov1ZlVBz7RZ1WULmpcGpQmUSrfZU9xf5X2xhUBnxeHjFShKKWHqXO4xEjCQd7p0UrzDph2iTeLhUwPf5UjcoNSwx0HiAUUOPMkKn75TlqPSYsqhCR04B0Q7KhzoL6YBWoa7Kx8wLptvI52qQLTUiceY3TnEwGaoWpGR7qn3a3Lo26z88o5q2k13QAQvGQlSZoAT2lcaM0Ab6Q/bMQ2zUPX3/cZ8R+u0oYYQM2YgN4r/6+NnweL/lkLdFQqoSGMM++2qAVV2HeWpBa7azFAuEZgtFffKBaCQ3kaluusqyQEFWSJLuoOlPNRaPqT6EcSNkuFR3hpYjfj5dO/m//7MGHzYnk8sXYEKgkNSAFyIPDLkNa4W1iKiTuj8WDUU49b7vqef3CwYgnQaJM32dRLEk3zAK0wWqgCzxuFgagsIoyLQzqdvskkSns6VTQPl4DsYa043oJYx59gSrAStVXLFUBIvm51ttXVSV3qtskaDqax49hps9LkYuQqsxWOgEkD6ubLIgjylo5IKOWGllAwmYXLhsJMX/+7S6jB4hBrmjUar6YM5wMcslQ5Q2quQi8wSJTZbTDIMHRKIiCJVXGD1eZb5McTDZA9JONRCwqluFvRj+9XJbUrL9mfoOJMDY6bQCmBQHHRrrhma4GssR9AHJsUaQo1BALAdvLaCFJYJPGskn7lf4OLUSmNap3tc07edRUoGL3PV5pY48TwzYqQHfeU4mkbNSL5/u0eCbM0WBBbcQG8Cz1PaxinxVP0oCSYwXKrWpFhpNxWAmHvk6UC2RVt90elcTrMXqFgpZVM5S1T8BM2wsz3jWIREYgXgFis0r1qMCn3RnV/8WSPhjvqBaAtxoQkIIYTN4Z4W+OZWEsbLsVVLgHjJ+wwJhP3fLCjxWA9RtSk3FA2hL2o3CJ8kUq57pV2DPYK8dHtuikIjEs1sTECL+PVM80P6pX7QZ83bHj9ZJ2ZaYRTM3q+CTofndBvJ1sO+zFob5ZM0ESTi3Vbtf93u5Dxe7VN6RqDXhKfc+2rnatM2GFVamGAOP22VcaZJtFjaX3MVyM++silW8oeYB2F5C9TEa6XhWSqEjeI81nGlWcXCfbCuCRXwYnRksISvY8CK0LlUAIEleTgmtd13o+Z1KRqmZfQvdIak3K24ZfRO3xGJJEA3jYm9ZwR59BeaRbr+uTKeqU6EkBFjb2/ieqzNZk4XmQ35MzdOFsj2kc4+2yLOZZazwA3klfcxFGXe1aB2SFYe/tUEH20Rdx5yvNNoM1Z7N8Pa1yeCRaXdzRgEBeplugzEAjZYjlQl5j3KPmSrTiUclQIhRF42HCnZWWKfxkTYCWgLeaJFzr+tL53Es4gBfYlIBNnKLUKE12OhR3hdoZVwnhlKRe4HlLwomHRP2yCNOVRPCGlJy2qg3GM6/UG4/KQvT5dnjySNOb8sa/ONdnjh2JFelGkNK53lTfWWbjnVJ5490se6ekOkiq96pqC2VnRI2eoEFMfVOpg1RG6qCuOmRvXDzfI+9qRPbGuGyQufWJflOpQRmkV8E4IQCP4DsOA44CKrpEE2S9+FCpqNKQpGAAkphnKlvRSxn6nVBpN45ki5HZlAJQKzskMns6FtJbiyJJNb68x1gi5VtkcqBij7xQa14sUp6NTgd0+bwu0MHbWfs4AX4ztjjwLHKhFhZhFfusdfLYZLj2pDSxEvccVKxQRUFIKiQC/duoz4BY/vi9gMg0FbMeY1cTYLYWUQPtHzWLyo/I86UpTm1zkUldUoIIUxXHKBl+gwT1W6aSMFGymdcraWWesqRMr5oc0k0BO3bEIiYK3cmJmBLYcCZwFvhNuiaGP0f/DOiwQyHuaUmBMweVg5lhKlZSDcL77rUREffyYpVkAHlOdGcztgcGPD8wTSJlj0jl0nnAukvJNmNgkBIMPBkSQSx3WKtTCY9qhJOumlltAL3tQ1Jl0AhS3UhbS40uwRNGChoFInCuFrr6wTGw2zzvJumGmiRjJiCo1V9FpC8eZI/oEICH7Wa0hSY8ExX6g+MmvMHYWixWWgVT5nmVK7YqicIIahvbReMroX2QdF/R3EhSFk0TxtgmnMqKL+PAs25RmyjxOCMGCBad/idEBJ5+Wd4WEQHzOgPwJaZPfU5ILcP0qRWvHImgBzQDUZDAHswXKa2HVC5e8Q5l1dAEHO6uHGlMdEHn5jcvAb1ks/cBnmaPsBxUzKBIXmgKCpxQoyMq5ySdCY8Vqe4zcsKadK4JSde0MyK+rjagrWg3FlvQIItjtYszDdgDeuhNGPg3C3SME8AzOiWsNmV+UtJ9Nn5JXuiuvWXuaVU57VU7rppYsxj2wSDNqms5WSx0f7qujFhCWUgRGyhNdJgbUoEUJWxQgGektCIPkMBk/9IsEsOcREycJNQxQMNuI8slUJeE32S7KRmhX+YCrcPIPaTtBNItzEzexGsHdOTxkeFC5vexl2qtMNvXUPDdIBarEtPLw6ql6LVYbCbOW+Lxsnm9HHibLPE4cVN5mjzsvUaRyxSbPC2eiVAOG+CCcrDGgJo8bD4iGzgchJDWawPZzlP8l+gV42xYC1jZhJDRSEHa4tLHpLZezcEFRnhBElCxl8hyIaLQpfOke9OIuDCAZpycpBzk8lodOVOcUlpveUnXov4qx3S7hwOiTOoVoiNp1MhujTFbl6QvXZ8gignrDStLJxO6Kq2TSeNLcVW72c5F8rkh+aib2K1Y6AuySfbCrIt7Qw2yMTjEUrH5PodvUhcCQlmoq8DpSN5jOH8HEyqbSedmgX7RMYSdgiTNiHVTQiqTaoWHSAtaKBGokdHBAGzr9UrTuQJvq2KX4qXDj+Ks0bm0QDSSNw2gYuAFb0rSYTOTOErHJ+icB7EZ8F5XR9AHDTwv+ahoJ50dm+9grLEjA4Pkw9nAOMcgp0rt60/6rSFhMIAh69yE2QB82J0sAtKxSqTOULcY8GTEcF4knHLPiMlJUuxxKgLpBig3cvM8HbdoOKJOrHtUJQZXCUNgXnkg6KwUwGgTmSrX1AeF9m3rZglCuCCSBJZa0T4AVZt8Daxc6gt2K82J1qs0j0HNkUzAxiQzYGSzfPNJnwCoLpiksqu6bNXYbvKB1vm3SUD9R4A/4B01s1oVxFdXyl5e56FW/ZmPvVJaQKoVdbFHXqiTM1QWeK8x1eolHR1Dv7swIEmn8ZJExgbdSEm86snrw+XAC7F3yloHXulzC3kJZBjIuw9F1ftX3QjUJJA6BE+zYMxjJMPztYnlJ8oBNRFm96mVzo/3AR8JAJyPvcYO1VvYokjmzdh87JXG3BDxZJpQgeZ5OjsvnQhFT0g62tSS60iCwWYs0LXGYFk+3mZGLtY6MWgNJB8NvGkmwwAT4kLFBQAM0pAGFdsllee+vF67TZL+JhqAd5lOJvNa57FVPkdtsihR74COhdmiLOJdGhduw0U6WBB3DrxsHBoyV8jovqxUs7sKPSLpwuJBsx2XJa+WNmWbGDJb68SN1pDkI7IQ9DmW6pUN06QqNQbYg89n4lLSiO1H/71bWtle+q2VybzWeWyVzy2fMcZ5Eu2xns/yWqlKI20dU4QxMbUvu5IG5N+oG9dtaQPGgibdW0HS+fFcAl5I97nwOw7rmdtIkWlM2zOSCrD9qC0tUZoThrXn0SwPTl4bA47qbdfdBaE0oAsga/kcQ3+zVGG21w+GzKEhxCePGg/fUr0k5Wh6SToZd8bE4QFwZvsq9kotCXl7d6QFvvqo33g67Dnr4LlJZkA61x4H3oP2alc6WVMx8ijpJg+NsVsp7nQ0ahLPFzR8DOgWQAWJy+0GCEmRSgQjj1F97/qY6I0ZAx+OycOwma0r0JFhvVNENhIOaU8KfbkAB1Fs93aLRVJM8otLxOniXhTk1CHpaOmB07PR3nWmY7pl6JS1TtzTBtbnQ3FdaiyIKlA0Y/cXk2Rkw/Fg9cOrUb3GTUHuqiCZ2zvZzeMk/ayO1lKMts6EIN3wVEmSIDZMxRm30yJ5EzuuWQkM3HeC8kcfUuR6fabLiLJbiI7cvUb1fxAGexARCc4pnQ3nwlpYbFWJ5y/CE6WB2lGqj1QOdQO7dKulOhXe+PI8vh+EsFQfShavCGYKeKx6TBODgc2DIh5SrbaKDUjWDGlbkMD1up8YN46p133b6G2Cmi2J1WywAM2Wi10nYTlubkdIkeLuDqWsB+bF+u934cd8I58fGuD5QcD2IQhOFIEicTKYdyj1x6f8eOmHVACAluEr9UrILcjiFfgU1qKOluoxvDwC+jD4gJBnHkEYKTyb0J83kQQq5FCTSDfKDUlE9YmqXAegq1P9iN2wT0SwgU3XbLYcJoVVtAV1GMFdfcbdHaU33bJozsxDYcsu1dVuMa/WAy3VM5OIhIBWIHOEGK+nFlBHQQ+QJc8Xh8KC+KJYgkC+AviShEgLpCEdBEgxH1ZbCxIw8ZBNTVmKefbg43zNVpW0IhewQsmnFcoWoeyRZ/6mWQ6dBLimiG4MbZ0ElDNorStkRQA6FpK35VhEUEjwmMRckejmRGjxcL1bfQN4J7nBinV930J0SroDF+SdBbfWxBYijalGfUeYTAxw0t6Rfky835hAnAxUMeCD7zLAqcn0kMBHKlOcC7R7u5KUKRWuf/zOsktkR9qWNMkcC4mGc8ARkc4cGzoEMJEGVgnwpFLxzqFDSFki/w/yN1GVsv+gJoPqNYrOY2aDpDWO0z3Zc9yLdjNqJOxaQ/wvrmofVFpUttfCBDOpSBKkBqQzBctNSups1oP7rdKLZKUJBUhBtRYqNmhbMSnJOKnICBVulg2s92dFVcxLJdNHBCmJ5LQtCXiAC5uMpAJCakgs1CpZLhQa0cICzi0iGqSgMEit4vxRt1xLygUiwNGrDslGSQC3BLXsF50H8eHNqJHIdp6Sfw/wLFZrzsUWCJkln2C6fyNZsJ8w0PEEuaU8GcXYTACSTgbUVQQF1UG5oTfSE4+BNLSgv4CF6iKZ09uA1Chwc5MRdZ4iBsp3g21JmlozIdEdBjwWRQx81HIg7Qr1DLjM5uO/hM2OLRsOGxNgU3HGOYxxt23RQ9zjFwmHc4RjxKLhXB/GbRnwzoTYinbTB0NzCJCC4DkSUBMt6QL/hy1FHh31B9xkGSASegsAsHzyOW8PACaW0kMrsI7FYRdQtZJ85OCl2mgcZPwaqla79t0C8vQ+UhdVrDO1zxJ/7wFPpyZ4SGw47sxItwBSrEbExxGfppmQhQO1CPhNHPuJO3sIXi9TtWH2QH7Q126TrklGxUWr8s1DbBHwqC7D/iuVt2hVZcokhv2n4t9infoNv/XSkNdhbB4gHiwQukH7tFjmsiQrDg02p4X/5HmjUqkzIfOGz5BuYSe+hnFt69kHwDv5+kPsXKx20YAG9eubIFo9Bf1L8CxVY1unvDUe/lbzOCNW3ii7DMkUAHDpCB6MS++s/gqQ+Y2XPAxwkpamSiXB4Nwguu2hHDm8a+w2JB/p/UbxyFO1bGt2t7RLv+uH8jkeuXhYnYtMRx31ihGPvVWnxojWxUlhKG5hjxNiHQYkJX3Dn0J5qEVKbwe8gXec3hG9eqYNG3bijHnH4uD4G2Kbgh+1RsOjRq36B970RtVkpHfmm/MtAx50Sti3lNqc08/8KF6NAj4cAfhA1HFBrKlPId6nwlURHkWKEUstk+buk1FzZaetpX5NsmELSlLRNYoaWpo9zuCcSIqNylnASTFqRoVMVJrhWVPATSrXZub1ZT6C4fzCVC0tLMK+s084p7f5e8ExIBuG7p1wgGXKfiaCEJW3XCAaBMCmB7ygPUUceAIbhT5IujDu97r5IxPuEQGe9ccz4L2lW0ptUguLcC8jvL2ZKpZ9l6tbefEafo06C/NUYxEEY4ZXO2TMnsPGQ8XOiBohzGXqVxLNElQfUhpktcvO5DNU7TbwMhmx7e+GMgLbwAtlGLd3kukIxIH3U3EuMh2g7e9vzAjEnYuHNUlgY4Zle68bPQJkp5x4rfLhzU7Z6AHa3v/GjMAS8Cj22QIF3Rtzmdt73WojEE8E3eqp71tt4LbPJ7sRWIrVhnyj5OxOa/vXP/YRiIfM7Lahyse7c2X1G5v82Adk+/o2ZwTiXq3dKFmp79vA25yB/6kfBeBZeeNG3Sj5pz7A29efegTiwNsmkFMP0Pa7GzMCcediG3gbM8Dbe009AnHgbava1AO0/e7GjEBc1Zpz8aaci6vbXu3GDPX2XhNHIA68h728MfGitl9v/RGIq9pPP7y++PW5EVWox+5llVhUQtVVQvajkrODK/Pf8ZVYK/3Nt/131hoTvw//vaRj+7f9M+fizy1+XrEP/fv+uzzbd/wxUux72T5SfC/V8VIdJ/GYya/jx0jYP9/x+4l//sMfBu+kO5ax3/v9Ju8u8W9/zMTv2nucox8njqu/U33X74vPEvfB+/77/js8N+/SHZ2OR93/A8SMMl/BDoegAAAAAElFTkSuQmCC" vertex="1" parent="1">
          <mxGeometry x="1870" y="1090" width="158" height="158" as="geometry" />
        </mxCell>
        <mxCell id="PXdA8bu888ZQMmjet499-42" value="&lt;font style=&quot;font-size: 36px&quot;&gt;Internet&lt;/font&gt;" style="text;html=1;align=center;verticalAlign=middle;resizable=0;points=[];autosize=1;strokeColor=none;fillColor=none;" vertex="1" parent="1">
          <mxGeometry x="680" y="-160" width="140" height="30" as="geometry" />
        </mxCell>
        <mxCell id="PXdA8bu888ZQMmjet499-49" style="edgeStyle=orthogonalEdgeStyle;rounded=0;orthogonalLoop=1;jettySize=auto;html=1;entryX=0.5;entryY=0;entryDx=0;entryDy=0;fontSize=24;strokeWidth=3;" edge="1" parent="1" source="8tCVFzNusxJCGrHQ7m7A-10">
          <mxGeometry relative="1" as="geometry">
            <mxPoint x="751.9049999999997" y="1080" as="targetPoint" />
          </mxGeometry>
        </mxCell>
        <mxCell id="8tCVFzNusxJCGrHQ7m7A-10" value="" style="outlineConnect=0;dashed=0;verticalLabelPosition=bottom;verticalAlign=top;align=center;html=1;shape=mxgraph.aws3.direct_connect;fillColor=#F58536;gradientColor=none;" parent="1" vertex="1">
          <mxGeometry x="707.52" y="890" width="88.78" height="110" as="geometry" />
        </mxCell>
        <mxCell id="PXdA8bu888ZQMmjet499-50" value="" style="rounded=1;arcSize=10;dashed=0;fillColor=none;gradientColor=none;strokeWidth=2;fontSize=24;" vertex="1" parent="1">
          <mxGeometry x="651.9100000000001" y="1080" width="200" height="200" as="geometry" />
        </mxCell>
        <mxCell id="PXdA8bu888ZQMmjet499-51" value="" style="dashed=0;html=1;shape=mxgraph.aws3.corporate_data_center;fillColor=#7D7C7C;gradientColor=none;dashed=0;fontSize=24;" vertex="1" parent="1">
          <mxGeometry x="676.9100000000001" y="1058" width="30" height="42" as="geometry" />
        </mxCell>
        <mxCell id="7_d-hzs4df93EbcywLov-1" value="VPC" style="points=[[0,0],[0.25,0],[0.5,0],[0.75,0],[1,0],[1,0.25],[1,0.5],[1,0.75],[1,1],[0.75,1],[0.5,1],[0.25,1],[0,1],[0,0.75],[0,0.5],[0,0.25]];outlineConnect=0;gradientColor=none;html=1;whiteSpace=wrap;fontSize=12;fontStyle=0;container=1;pointerEvents=0;collapsible=0;recursiveResize=0;shape=mxgraph.aws4.group;grIcon=mxgraph.aws4.group_vpc;strokeColor=#248814;fillColor=none;verticalAlign=top;align=left;spacingLeft=30;fontColor=#AAB7B8;dashed=0;" vertex="1" parent="1">
          <mxGeometry x="1716" y="208" width="600" height="467" as="geometry" />
        </mxCell>
        <mxCell id="7_d-hzs4df93EbcywLov-2" value="Public subnet" style="points=[[0,0],[0.25,0],[0.5,0],[0.75,0],[1,0],[1,0.25],[1,0.5],[1,0.75],[1,1],[0.75,1],[0.5,1],[0.25,1],[0,1],[0,0.75],[0,0.5],[0,0.25]];outlineConnect=0;gradientColor=none;html=1;whiteSpace=wrap;fontSize=12;fontStyle=0;container=1;pointerEvents=0;collapsible=0;recursiveResize=0;shape=mxgraph.aws4.group;grIcon=mxgraph.aws4.group_security_group;grStroke=0;strokeColor=#248814;fillColor=#E9F3E6;verticalAlign=top;align=left;spacingLeft=30;fontColor=#248814;dashed=0;" vertex="1" parent="7_d-hzs4df93EbcywLov-1">
          <mxGeometry x="30" y="30" width="550" height="200" as="geometry" />
        </mxCell>
        <mxCell id="7_d-hzs4df93EbcywLov-6" value="Private subnet" style="points=[[0,0],[0.25,0],[0.5,0],[0.75,0],[1,0],[1,0.25],[1,0.5],[1,0.75],[1,1],[0.75,1],[0.5,1],[0.25,1],[0,1],[0,0.75],[0,0.5],[0,0.25]];outlineConnect=0;gradientColor=none;html=1;whiteSpace=wrap;fontSize=12;fontStyle=0;container=1;pointerEvents=0;collapsible=0;recursiveResize=0;shape=mxgraph.aws4.group;grIcon=mxgraph.aws4.group_security_group;grStroke=0;strokeColor=#147EBA;fillColor=#E6F2F8;verticalAlign=top;align=left;spacingLeft=30;fontColor=#147EBA;dashed=0;" vertex="1" parent="7_d-hzs4df93EbcywLov-1">
          <mxGeometry x="30" y="240" width="550" height="210" as="geometry" />
        </mxCell>
        <mxCell id="7_d-hzs4df93EbcywLov-15" value="" style="outlineConnect=0;dashed=0;verticalLabelPosition=bottom;verticalAlign=top;align=center;html=1;shape=mxgraph.aws3.virtual_private_cloud;fillColor=#F58534;gradientColor=none;" vertex="1" parent="1">
          <mxGeometry x="1746" y="178" width="79.5" height="54" as="geometry" />
        </mxCell>
      </root>
    </mxGraphModel>
  </diagram>
  <diagram id="xXxW_nmhSCIlsjUsdtql" name="Page-2">
    <mxGraphModel dx="2596" dy="2558" grid="1" gridSize="10" guides="1" tooltips="1" connect="1" arrows="1" fold="1" page="1" pageScale="1" pageWidth="850" pageHeight="1100" math="0" shadow="0">
      <root>
        <mxCell id="0" />
        <mxCell id="1" parent="0" />
        <mxCell id="y_XW4hDY_tvhjHr78zz3-1" value="VPC" style="points=[[0,0],[0.25,0],[0.5,0],[0.75,0],[1,0],[1,0.25],[1,0.5],[1,0.75],[1,1],[0.75,1],[0.5,1],[0.25,1],[0,1],[0,0.75],[0,0.5],[0,0.25]];outlineConnect=0;gradientColor=none;html=1;whiteSpace=wrap;fontSize=12;fontStyle=0;container=1;pointerEvents=0;collapsible=0;recursiveResize=0;shape=mxgraph.aws4.group;grIcon=mxgraph.aws4.group_vpc;strokeColor=#248814;fillColor=none;verticalAlign=top;align=left;spacingLeft=30;fontColor=#AAB7B8;dashed=0;" vertex="1" parent="1">
          <mxGeometry x="850" y="50" width="600" height="515" as="geometry" />
        </mxCell>
        <mxCell id="y_XW4hDY_tvhjHr78zz3-2" value="Public subnet" style="points=[[0,0],[0.25,0],[0.5,0],[0.75,0],[1,0],[1,0.25],[1,0.5],[1,0.75],[1,1],[0.75,1],[0.5,1],[0.25,1],[0,1],[0,0.75],[0,0.5],[0,0.25]];outlineConnect=0;gradientColor=none;html=1;whiteSpace=wrap;fontSize=12;fontStyle=0;container=1;pointerEvents=0;collapsible=0;recursiveResize=0;shape=mxgraph.aws4.group;grIcon=mxgraph.aws4.group_security_group;grStroke=0;strokeColor=#248814;fillColor=#E9F3E6;verticalAlign=top;align=left;spacingLeft=30;fontColor=#248814;dashed=0;" vertex="1" parent="y_XW4hDY_tvhjHr78zz3-1">
          <mxGeometry x="30" y="30" width="550" height="200" as="geometry" />
        </mxCell>
        <mxCell id="y_XW4hDY_tvhjHr78zz3-3" value="" style="outlineConnect=0;dashed=0;verticalLabelPosition=bottom;verticalAlign=top;align=center;html=1;shape=mxgraph.aws3.vpc_nat_gateway;fillColor=#F58534;gradientColor=none;" vertex="1" parent="y_XW4hDY_tvhjHr78zz3-2">
          <mxGeometry x="455" y="10" width="80" height="80" as="geometry" />
        </mxCell>
        <mxCell id="y_XW4hDY_tvhjHr78zz3-4" value="" style="outlineConnect=0;dashed=0;verticalLabelPosition=bottom;verticalAlign=top;align=center;html=1;shape=mxgraph.aws3.route_53;fillColor=#F58536;gradientColor=none;" vertex="1" parent="y_XW4hDY_tvhjHr78zz3-2">
          <mxGeometry x="10" y="30" width="70.5" height="85.5" as="geometry" />
        </mxCell>
        <mxCell id="y_XW4hDY_tvhjHr78zz3-5" value="" style="outlineConnect=0;dashed=0;verticalLabelPosition=bottom;verticalAlign=top;align=center;html=1;shape=mxgraph.aws3.classic_load_balancer;fillColor=#F58536;gradientColor=none;" vertex="1" parent="y_XW4hDY_tvhjHr78zz3-2">
          <mxGeometry x="230" y="43.5" width="69" height="72" as="geometry" />
        </mxCell>
        <mxCell id="y_XW4hDY_tvhjHr78zz3-6" value="Private subnet" style="points=[[0,0],[0.25,0],[0.5,0],[0.75,0],[1,0],[1,0.25],[1,0.5],[1,0.75],[1,1],[0.75,1],[0.5,1],[0.25,1],[0,1],[0,0.75],[0,0.5],[0,0.25]];outlineConnect=0;gradientColor=none;html=1;whiteSpace=wrap;fontSize=12;fontStyle=0;container=1;pointerEvents=0;collapsible=0;recursiveResize=0;shape=mxgraph.aws4.group;grIcon=mxgraph.aws4.group_security_group;grStroke=0;strokeColor=#147EBA;fillColor=#E6F2F8;verticalAlign=top;align=left;spacingLeft=30;fontColor=#147EBA;dashed=0;" vertex="1" parent="y_XW4hDY_tvhjHr78zz3-1">
          <mxGeometry x="30" y="240" width="550" height="210" as="geometry" />
        </mxCell>
        <mxCell id="y_XW4hDY_tvhjHr78zz3-7" value="" style="sketch=0;points=[[0,0,0],[0.25,0,0],[0.5,0,0],[0.75,0,0],[1,0,0],[0,1,0],[0.25,1,0],[0.5,1,0],[0.75,1,0],[1,1,0],[0,0.25,0],[0,0.5,0],[0,0.75,0],[1,0.25,0],[1,0.5,0],[1,0.75,0]];outlineConnect=0;fontColor=#232F3E;gradientColor=#F78E04;gradientDirection=north;fillColor=#D05C17;strokeColor=#ffffff;dashed=0;verticalLabelPosition=bottom;verticalAlign=top;align=center;html=1;fontSize=12;fontStyle=0;aspect=fixed;shape=mxgraph.aws4.resourceIcon;resIcon=mxgraph.aws4.eks;" vertex="1" parent="y_XW4hDY_tvhjHr78zz3-6">
          <mxGeometry x="130" y="114" width="78" height="78" as="geometry" />
        </mxCell>
        <mxCell id="y_XW4hDY_tvhjHr78zz3-8" value="" style="sketch=0;points=[[0,0,0],[0.25,0,0],[0.5,0,0],[0.75,0,0],[1,0,0],[0,1,0],[0.25,1,0],[0.5,1,0],[0.75,1,0],[1,1,0],[0,0.25,0],[0,0.5,0],[0,0.75,0],[1,0.25,0],[1,0.5,0],[1,0.75,0]];outlineConnect=0;fontColor=#232F3E;gradientColor=#F78E04;gradientDirection=north;fillColor=#D05C17;strokeColor=#ffffff;dashed=0;verticalLabelPosition=bottom;verticalAlign=top;align=center;html=1;fontSize=12;fontStyle=0;aspect=fixed;shape=mxgraph.aws4.resourceIcon;resIcon=mxgraph.aws4.eks;" vertex="1" parent="y_XW4hDY_tvhjHr78zz3-6">
          <mxGeometry x="220" y="114" width="78" height="78" as="geometry" />
        </mxCell>
        <mxCell id="y_XW4hDY_tvhjHr78zz3-9" value="" style="sketch=0;points=[[0,0,0],[0.25,0,0],[0.5,0,0],[0.75,0,0],[1,0,0],[0,1,0],[0.25,1,0],[0.5,1,0],[0.75,1,0],[1,1,0],[0,0.25,0],[0,0.5,0],[0,0.75,0],[1,0.25,0],[1,0.5,0],[1,0.75,0]];outlineConnect=0;fontColor=#232F3E;gradientColor=#F78E04;gradientDirection=north;fillColor=#D05C17;strokeColor=#ffffff;dashed=0;verticalLabelPosition=bottom;verticalAlign=top;align=center;html=1;fontSize=12;fontStyle=0;aspect=fixed;shape=mxgraph.aws4.resourceIcon;resIcon=mxgraph.aws4.eks;" vertex="1" parent="y_XW4hDY_tvhjHr78zz3-6">
          <mxGeometry x="310" y="114" width="78" height="78" as="geometry" />
        </mxCell>
        <mxCell id="y_XW4hDY_tvhjHr78zz3-10" value="" style="sketch=0;points=[[0,0,0],[0.25,0,0],[0.5,0,0],[0.75,0,0],[1,0,0],[0,1,0],[0.25,1,0],[0.5,1,0],[0.75,1,0],[1,1,0],[0,0.25,0],[0,0.5,0],[0,0.75,0],[1,0.25,0],[1,0.5,0],[1,0.75,0]];outlineConnect=0;fontColor=#232F3E;gradientColor=#F78E04;gradientDirection=north;fillColor=#D05C17;strokeColor=#ffffff;dashed=0;verticalLabelPosition=bottom;verticalAlign=top;align=center;html=1;fontSize=12;fontStyle=0;aspect=fixed;shape=mxgraph.aws4.resourceIcon;resIcon=mxgraph.aws4.ec2;" vertex="1" parent="y_XW4hDY_tvhjHr78zz3-6">
          <mxGeometry x="460" y="20" width="68" height="68" as="geometry" />
        </mxCell>
        <mxCell id="y_XW4hDY_tvhjHr78zz3-11" value="" style="outlineConnect=0;dashed=0;verticalLabelPosition=bottom;verticalAlign=top;align=center;html=1;shape=mxgraph.aws3.endpoints;fillColor=#F58536;gradientColor=none;" vertex="1" parent="y_XW4hDY_tvhjHr78zz3-6">
          <mxGeometry x="459" y="117" width="69" height="72" as="geometry" />
        </mxCell>
        <mxCell id="y_XW4hDY_tvhjHr78zz3-12" value="" style="outlineConnect=0;dashed=0;verticalLabelPosition=bottom;verticalAlign=top;align=center;html=1;shape=mxgraph.aws3.lambda_function;fillColor=#F58534;gradientColor=none;" vertex="1" parent="y_XW4hDY_tvhjHr78zz3-6">
          <mxGeometry x="20" y="120" width="69" height="72" as="geometry" />
        </mxCell>
        <mxCell id="y_XW4hDY_tvhjHr78zz3-13" value="" style="outlineConnect=0;dashed=0;verticalLabelPosition=bottom;verticalAlign=top;align=center;html=1;shape=mxgraph.aws3.application_load_balancer;fillColor=#F58536;gradientColor=none;" vertex="1" parent="y_XW4hDY_tvhjHr78zz3-6">
          <mxGeometry x="224.5" y="30" width="69" height="72" as="geometry" />
        </mxCell>
        <mxCell id="y_XW4hDY_tvhjHr78zz3-14" value="Internet" style="sketch=0;outlineConnect=0;fontColor=#232F3E;gradientColor=none;strokeColor=#232F3E;fillColor=#ffffff;dashed=0;verticalLabelPosition=bottom;verticalAlign=top;align=center;html=1;fontSize=12;fontStyle=0;aspect=fixed;shape=mxgraph.aws4.resourceIcon;resIcon=mxgraph.aws4.internet;" vertex="1" parent="y_XW4hDY_tvhjHr78zz3-1">
          <mxGeometry x="260" y="-30" width="60" height="60" as="geometry" />
        </mxCell>
        <mxCell id="y_XW4hDY_tvhjHr78zz3-15" value="" style="outlineConnect=0;dashed=0;verticalLabelPosition=bottom;verticalAlign=top;align=center;html=1;shape=mxgraph.aws3.virtual_private_cloud;fillColor=#F58534;gradientColor=none;" vertex="1" parent="y_XW4hDY_tvhjHr78zz3-1">
          <mxGeometry x="30" y="-30" width="79.5" height="54" as="geometry" />
        </mxCell>
        <mxCell id="y_XW4hDY_tvhjHr78zz3-16" style="edgeStyle=orthogonalEdgeStyle;rounded=0;orthogonalLoop=1;jettySize=auto;html=1;entryX=0.5;entryY=1;entryDx=0;entryDy=0;" edge="1" parent="1" source="y_XW4hDY_tvhjHr78zz3-19" target="y_XW4hDY_tvhjHr78zz3-22">
          <mxGeometry relative="1" as="geometry" />
        </mxCell>
        <mxCell id="y_XW4hDY_tvhjHr78zz3-17" style="edgeStyle=orthogonalEdgeStyle;rounded=0;orthogonalLoop=1;jettySize=auto;html=1;" edge="1" parent="1" source="y_XW4hDY_tvhjHr78zz3-19" target="y_XW4hDY_tvhjHr78zz3-1">
          <mxGeometry relative="1" as="geometry">
            <mxPoint x="1160" y="580" as="targetPoint" />
          </mxGeometry>
        </mxCell>
        <mxCell id="y_XW4hDY_tvhjHr78zz3-18" style="edgeStyle=orthogonalEdgeStyle;rounded=0;orthogonalLoop=1;jettySize=auto;html=1;fontSize=36;strokeWidth=7;" edge="1" parent="1" source="y_XW4hDY_tvhjHr78zz3-19">
          <mxGeometry relative="1" as="geometry">
            <mxPoint x="751.9100000000003" y="910" as="targetPoint" />
          </mxGeometry>
        </mxCell>
        <mxCell id="y_XW4hDY_tvhjHr78zz3-19" value="" style="sketch=0;points=[[0,0,0],[0.25,0,0],[0.5,0,0],[0.75,0,0],[1,0,0],[0,1,0],[0.25,1,0],[0.5,1,0],[0.75,1,0],[1,1,0],[0,0.25,0],[0,0.5,0],[0,0.75,0],[1,0.25,0],[1,0.5,0],[1,0.75,0]];outlineConnect=0;fontColor=#232F3E;gradientColor=#945DF2;gradientDirection=north;fillColor=#5A30B5;strokeColor=#ffffff;dashed=0;verticalLabelPosition=bottom;verticalAlign=top;align=center;html=1;fontSize=12;fontStyle=0;aspect=fixed;shape=mxgraph.aws4.resourceIcon;resIcon=mxgraph.aws4.transit_gateway;" vertex="1" parent="1">
          <mxGeometry x="676.91" y="660" width="150" height="150" as="geometry" />
        </mxCell>
        <mxCell id="y_XW4hDY_tvhjHr78zz3-20" value="" style="aspect=fixed;perimeter=ellipsePerimeter;html=1;align=center;shadow=0;dashed=0;spacingTop=3;image;image=img/lib/active_directory/internet_cloud.svg;" vertex="1" parent="1">
          <mxGeometry x="640" y="-210" width="223.81" height="141" as="geometry" />
        </mxCell>
        <mxCell id="y_XW4hDY_tvhjHr78zz3-21" style="edgeStyle=orthogonalEdgeStyle;rounded=0;orthogonalLoop=1;jettySize=auto;html=1;" edge="1" parent="1" source="y_XW4hDY_tvhjHr78zz3-14">
          <mxGeometry relative="1" as="geometry">
            <mxPoint x="780" y="-60" as="targetPoint" />
            <Array as="points">
              <mxPoint x="1140" y="-30" />
              <mxPoint x="780" y="-30" />
            </Array>
          </mxGeometry>
        </mxCell>
        <mxCell id="y_XW4hDY_tvhjHr78zz3-22" value="VPC" style="points=[[0,0],[0.25,0],[0.5,0],[0.75,0],[1,0],[1,0.25],[1,0.5],[1,0.75],[1,1],[0.75,1],[0.5,1],[0.25,1],[0,1],[0,0.75],[0,0.5],[0,0.25]];outlineConnect=0;gradientColor=none;html=1;whiteSpace=wrap;fontSize=12;fontStyle=0;container=1;pointerEvents=0;collapsible=0;recursiveResize=0;shape=mxgraph.aws4.group;grIcon=mxgraph.aws4.group_vpc;strokeColor=#248814;fillColor=none;verticalAlign=top;align=left;spacingLeft=30;fontColor=#AAB7B8;dashed=0;" vertex="1" parent="1">
          <mxGeometry x="40" y="50" width="600" height="515" as="geometry" />
        </mxCell>
        <mxCell id="y_XW4hDY_tvhjHr78zz3-23" value="Public subnet" style="points=[[0,0],[0.25,0],[0.5,0],[0.75,0],[1,0],[1,0.25],[1,0.5],[1,0.75],[1,1],[0.75,1],[0.5,1],[0.25,1],[0,1],[0,0.75],[0,0.5],[0,0.25]];outlineConnect=0;gradientColor=none;html=1;whiteSpace=wrap;fontSize=12;fontStyle=0;container=1;pointerEvents=0;collapsible=0;recursiveResize=0;shape=mxgraph.aws4.group;grIcon=mxgraph.aws4.group_security_group;grStroke=0;strokeColor=#248814;fillColor=#E9F3E6;verticalAlign=top;align=left;spacingLeft=30;fontColor=#248814;dashed=0;" vertex="1" parent="y_XW4hDY_tvhjHr78zz3-22">
          <mxGeometry x="30" y="30" width="550" height="200" as="geometry" />
        </mxCell>
        <mxCell id="y_XW4hDY_tvhjHr78zz3-24" value="" style="outlineConnect=0;dashed=0;verticalLabelPosition=bottom;verticalAlign=top;align=center;html=1;shape=mxgraph.aws3.vpc_nat_gateway;fillColor=#F58534;gradientColor=none;" vertex="1" parent="y_XW4hDY_tvhjHr78zz3-23">
          <mxGeometry x="455" y="10" width="80" height="80" as="geometry" />
        </mxCell>
        <mxCell id="y_XW4hDY_tvhjHr78zz3-25" value="" style="outlineConnect=0;dashed=0;verticalLabelPosition=bottom;verticalAlign=top;align=center;html=1;shape=mxgraph.aws3.route_53;fillColor=#F58536;gradientColor=none;" vertex="1" parent="y_XW4hDY_tvhjHr78zz3-23">
          <mxGeometry x="10" y="30" width="70.5" height="85.5" as="geometry" />
        </mxCell>
        <mxCell id="y_XW4hDY_tvhjHr78zz3-26" value="" style="outlineConnect=0;dashed=0;verticalLabelPosition=bottom;verticalAlign=top;align=center;html=1;shape=mxgraph.aws3.classic_load_balancer;fillColor=#F58536;gradientColor=none;" vertex="1" parent="y_XW4hDY_tvhjHr78zz3-23">
          <mxGeometry x="230" y="43.5" width="69" height="72" as="geometry" />
        </mxCell>
        <mxCell id="y_XW4hDY_tvhjHr78zz3-27" value="Private subnet" style="points=[[0,0],[0.25,0],[0.5,0],[0.75,0],[1,0],[1,0.25],[1,0.5],[1,0.75],[1,1],[0.75,1],[0.5,1],[0.25,1],[0,1],[0,0.75],[0,0.5],[0,0.25]];outlineConnect=0;gradientColor=none;html=1;whiteSpace=wrap;fontSize=12;fontStyle=0;container=1;pointerEvents=0;collapsible=0;recursiveResize=0;shape=mxgraph.aws4.group;grIcon=mxgraph.aws4.group_security_group;grStroke=0;strokeColor=#147EBA;fillColor=#E6F2F8;verticalAlign=top;align=left;spacingLeft=30;fontColor=#147EBA;dashed=0;" vertex="1" parent="y_XW4hDY_tvhjHr78zz3-22">
          <mxGeometry x="30" y="240" width="550" height="210" as="geometry" />
        </mxCell>
        <mxCell id="y_XW4hDY_tvhjHr78zz3-28" value="" style="sketch=0;points=[[0,0,0],[0.25,0,0],[0.5,0,0],[0.75,0,0],[1,0,0],[0,1,0],[0.25,1,0],[0.5,1,0],[0.75,1,0],[1,1,0],[0,0.25,0],[0,0.5,0],[0,0.75,0],[1,0.25,0],[1,0.5,0],[1,0.75,0]];outlineConnect=0;fontColor=#232F3E;gradientColor=#F78E04;gradientDirection=north;fillColor=#D05C17;strokeColor=#ffffff;dashed=0;verticalLabelPosition=bottom;verticalAlign=top;align=center;html=1;fontSize=12;fontStyle=0;aspect=fixed;shape=mxgraph.aws4.resourceIcon;resIcon=mxgraph.aws4.eks;" vertex="1" parent="y_XW4hDY_tvhjHr78zz3-27">
          <mxGeometry x="130" y="114" width="78" height="78" as="geometry" />
        </mxCell>
        <mxCell id="y_XW4hDY_tvhjHr78zz3-29" value="" style="sketch=0;points=[[0,0,0],[0.25,0,0],[0.5,0,0],[0.75,0,0],[1,0,0],[0,1,0],[0.25,1,0],[0.5,1,0],[0.75,1,0],[1,1,0],[0,0.25,0],[0,0.5,0],[0,0.75,0],[1,0.25,0],[1,0.5,0],[1,0.75,0]];outlineConnect=0;fontColor=#232F3E;gradientColor=#F78E04;gradientDirection=north;fillColor=#D05C17;strokeColor=#ffffff;dashed=0;verticalLabelPosition=bottom;verticalAlign=top;align=center;html=1;fontSize=12;fontStyle=0;aspect=fixed;shape=mxgraph.aws4.resourceIcon;resIcon=mxgraph.aws4.eks;" vertex="1" parent="y_XW4hDY_tvhjHr78zz3-27">
          <mxGeometry x="220" y="114" width="78" height="78" as="geometry" />
        </mxCell>
        <mxCell id="y_XW4hDY_tvhjHr78zz3-30" value="" style="sketch=0;points=[[0,0,0],[0.25,0,0],[0.5,0,0],[0.75,0,0],[1,0,0],[0,1,0],[0.25,1,0],[0.5,1,0],[0.75,1,0],[1,1,0],[0,0.25,0],[0,0.5,0],[0,0.75,0],[1,0.25,0],[1,0.5,0],[1,0.75,0]];outlineConnect=0;fontColor=#232F3E;gradientColor=#F78E04;gradientDirection=north;fillColor=#D05C17;strokeColor=#ffffff;dashed=0;verticalLabelPosition=bottom;verticalAlign=top;align=center;html=1;fontSize=12;fontStyle=0;aspect=fixed;shape=mxgraph.aws4.resourceIcon;resIcon=mxgraph.aws4.eks;" vertex="1" parent="y_XW4hDY_tvhjHr78zz3-27">
          <mxGeometry x="310" y="114" width="78" height="78" as="geometry" />
        </mxCell>
        <mxCell id="y_XW4hDY_tvhjHr78zz3-31" value="" style="sketch=0;points=[[0,0,0],[0.25,0,0],[0.5,0,0],[0.75,0,0],[1,0,0],[0,1,0],[0.25,1,0],[0.5,1,0],[0.75,1,0],[1,1,0],[0,0.25,0],[0,0.5,0],[0,0.75,0],[1,0.25,0],[1,0.5,0],[1,0.75,0]];outlineConnect=0;fontColor=#232F3E;gradientColor=#F78E04;gradientDirection=north;fillColor=#D05C17;strokeColor=#ffffff;dashed=0;verticalLabelPosition=bottom;verticalAlign=top;align=center;html=1;fontSize=12;fontStyle=0;aspect=fixed;shape=mxgraph.aws4.resourceIcon;resIcon=mxgraph.aws4.ec2;" vertex="1" parent="y_XW4hDY_tvhjHr78zz3-27">
          <mxGeometry x="460" y="20" width="68" height="68" as="geometry" />
        </mxCell>
        <mxCell id="y_XW4hDY_tvhjHr78zz3-32" value="" style="outlineConnect=0;dashed=0;verticalLabelPosition=bottom;verticalAlign=top;align=center;html=1;shape=mxgraph.aws3.endpoints;fillColor=#F58536;gradientColor=none;" vertex="1" parent="y_XW4hDY_tvhjHr78zz3-27">
          <mxGeometry x="459" y="117" width="69" height="72" as="geometry" />
        </mxCell>
        <mxCell id="y_XW4hDY_tvhjHr78zz3-33" value="" style="outlineConnect=0;dashed=0;verticalLabelPosition=bottom;verticalAlign=top;align=center;html=1;shape=mxgraph.aws3.lambda_function;fillColor=#F58534;gradientColor=none;" vertex="1" parent="y_XW4hDY_tvhjHr78zz3-27">
          <mxGeometry x="20" y="120" width="69" height="72" as="geometry" />
        </mxCell>
        <mxCell id="y_XW4hDY_tvhjHr78zz3-34" value="" style="outlineConnect=0;dashed=0;verticalLabelPosition=bottom;verticalAlign=top;align=center;html=1;shape=mxgraph.aws3.application_load_balancer;fillColor=#F58536;gradientColor=none;" vertex="1" parent="y_XW4hDY_tvhjHr78zz3-27">
          <mxGeometry x="224.5" y="30" width="69" height="72" as="geometry" />
        </mxCell>
        <mxCell id="y_XW4hDY_tvhjHr78zz3-35" value="Internet" style="sketch=0;outlineConnect=0;fontColor=#232F3E;gradientColor=none;strokeColor=#232F3E;fillColor=#ffffff;dashed=0;verticalLabelPosition=bottom;verticalAlign=top;align=center;html=1;fontSize=12;fontStyle=0;aspect=fixed;shape=mxgraph.aws4.resourceIcon;resIcon=mxgraph.aws4.internet;" vertex="1" parent="y_XW4hDY_tvhjHr78zz3-22">
          <mxGeometry x="260" y="-30" width="60" height="60" as="geometry" />
        </mxCell>
        <mxCell id="y_XW4hDY_tvhjHr78zz3-36" value="" style="outlineConnect=0;dashed=0;verticalLabelPosition=bottom;verticalAlign=top;align=center;html=1;shape=mxgraph.aws3.virtual_private_cloud;fillColor=#F58534;gradientColor=none;" vertex="1" parent="1">
          <mxGeometry x="70" y="20" width="79.5" height="54" as="geometry" />
        </mxCell>
        <mxCell id="y_XW4hDY_tvhjHr78zz3-37" style="edgeStyle=orthogonalEdgeStyle;rounded=0;orthogonalLoop=1;jettySize=auto;html=1;" edge="1" parent="1">
          <mxGeometry relative="1" as="geometry">
            <mxPoint x="330" y="20" as="sourcePoint" />
            <mxPoint x="750" y="-60" as="targetPoint" />
            <Array as="points">
              <mxPoint x="330" y="10" />
              <mxPoint x="330" y="-30" />
              <mxPoint x="750" y="-30" />
            </Array>
          </mxGeometry>
        </mxCell>
        <mxCell id="y_XW4hDY_tvhjHr78zz3-38" value="&lt;font style=&quot;font-size: 36px&quot;&gt;Internet&lt;/font&gt;" style="text;html=1;align=center;verticalAlign=middle;resizable=0;points=[];autosize=1;strokeColor=none;fillColor=none;" vertex="1" parent="1">
          <mxGeometry x="680" y="-160" width="140" height="30" as="geometry" />
        </mxCell>
        <mxCell id="y_XW4hDY_tvhjHr78zz3-39" style="edgeStyle=orthogonalEdgeStyle;rounded=0;orthogonalLoop=1;jettySize=auto;html=1;entryX=0.5;entryY=0;entryDx=0;entryDy=0;fontSize=24;strokeWidth=3;" edge="1" parent="1" source="y_XW4hDY_tvhjHr78zz3-40">
          <mxGeometry relative="1" as="geometry">
            <mxPoint x="751.9049999999997" y="1080" as="targetPoint" />
          </mxGeometry>
        </mxCell>
        <mxCell id="y_XW4hDY_tvhjHr78zz3-40" value="" style="outlineConnect=0;dashed=0;verticalLabelPosition=bottom;verticalAlign=top;align=center;html=1;shape=mxgraph.aws3.direct_connect;fillColor=#F58536;gradientColor=none;" vertex="1" parent="1">
          <mxGeometry x="707.52" y="890" width="88.78" height="110" as="geometry" />
        </mxCell>
        <mxCell id="y_XW4hDY_tvhjHr78zz3-43" value="" style="rounded=1;arcSize=10;dashed=0;fillColor=none;gradientColor=none;strokeWidth=2;fontSize=24;" vertex="1" parent="1">
          <mxGeometry x="651.9100000000001" y="1080" width="200" height="200" as="geometry" />
        </mxCell>
        <mxCell id="y_XW4hDY_tvhjHr78zz3-44" value="" style="dashed=0;html=1;shape=mxgraph.aws3.corporate_data_center;fillColor=#7D7C7C;gradientColor=none;dashed=0;fontSize=24;" vertex="1" parent="1">
          <mxGeometry x="676.9100000000001" y="1058" width="30" height="42" as="geometry" />
        </mxCell>
      </root>
    </mxGraphModel>
  </diagram>
</mxfile>
